<?xml version="1.0" encoding="utf-8"?>
<svg xmlns="http://www.w3.org/2000/svg" xmlns:xlink="http://www.w3.org/1999/xlink" width="900" height="460" viewBox="0 0 3600 1840">
<defs>
  <clipPath id="clip0000">
    <rect x="0" y="0" width="3600" height="1840"/>
  </clipPath>
</defs>
<path clip-path="url(#clip0000)" d="M0 1840 L3600 1840 L3600 0 L0 0  Z" fill="#ffffff" fill-rule="evenodd" fill-opacity="1"/>
<defs>
  <clipPath id="clip0001">
    <rect x="267" y="7" width="3294" height="93"/>
  </clipPath>
</defs>
<path clip-path="url(#clip0000)" d="M320.232 1591.26 L3552.76 1591.26 L3552.76 109.36 L320.232 109.36  Z" fill="#ffffff" fill-rule="evenodd" fill-opacity="1"/>
<defs>
  <clipPath id="clip0002">
    <rect x="320" y="109" width="3234" height="1483"/>
  </clipPath>
</defs>
<polyline clip-path="url(#clip0002)" style="stroke:#000000; stroke-linecap:round; stroke-linejoin:round; stroke-width:2; stroke-opacity:0.1; fill:none" points="392.539,1591.26 392.539,109.36 "/>
<polyline clip-path="url(#clip0002)" style="stroke:#000000; stroke-linecap:round; stroke-linejoin:round; stroke-width:2; stroke-opacity:0.1; fill:none" points="1159.72,1591.26 1159.72,109.36 "/>
<polyline clip-path="url(#clip0002)" style="stroke:#000000; stroke-linecap:round; stroke-linejoin:round; stroke-width:2; stroke-opacity:0.1; fill:none" points="1926.9,1591.26 1926.9,109.36 "/>
<polyline clip-path="url(#clip0002)" style="stroke:#000000; stroke-linecap:round; stroke-linejoin:round; stroke-width:2; stroke-opacity:0.1; fill:none" points="2694.09,1591.26 2694.09,109.36 "/>
<polyline clip-path="url(#clip0002)" style="stroke:#000000; stroke-linecap:round; stroke-linejoin:round; stroke-width:2; stroke-opacity:0.1; fill:none" points="3461.27,1591.26 3461.27,109.36 "/>
<polyline clip-path="url(#clip0002)" style="stroke:#000000; stroke-linecap:round; stroke-linejoin:round; stroke-width:2; stroke-opacity:0.1; fill:none" points="392.539,1591.26 392.539,109.36 "/>
<polyline clip-path="url(#clip0002)" style="stroke:#000000; stroke-linecap:round; stroke-linejoin:round; stroke-width:2; stroke-opacity:0.1; fill:none" points="1159.72,1591.26 1159.72,109.36 "/>
<polyline clip-path="url(#clip0002)" style="stroke:#000000; stroke-linecap:round; stroke-linejoin:round; stroke-width:2; stroke-opacity:0.1; fill:none" points="1926.9,1591.26 1926.9,109.36 "/>
<polyline clip-path="url(#clip0002)" style="stroke:#000000; stroke-linecap:round; stroke-linejoin:round; stroke-width:2; stroke-opacity:0.1; fill:none" points="2694.09,1591.26 2694.09,109.36 "/>
<polyline clip-path="url(#clip0002)" style="stroke:#000000; stroke-linecap:round; stroke-linejoin:round; stroke-width:2; stroke-opacity:0.1; fill:none" points="3461.27,1591.26 3461.27,109.36 "/>
<polyline clip-path="url(#clip0002)" style="stroke:#000000; stroke-linecap:round; stroke-linejoin:round; stroke-width:2; stroke-opacity:0.1; fill:none" points="320.232,1276.49 3552.76,1276.49 "/>
<polyline clip-path="url(#clip0002)" style="stroke:#000000; stroke-linecap:round; stroke-linejoin:round; stroke-width:2; stroke-opacity:0.1; fill:none" points="320.232,904.142 3552.76,904.142 "/>
<polyline clip-path="url(#clip0002)" style="stroke:#000000; stroke-linecap:round; stroke-linejoin:round; stroke-width:2; stroke-opacity:0.1; fill:none" points="320.232,531.798 3552.76,531.798 "/>
<polyline clip-path="url(#clip0002)" style="stroke:#000000; stroke-linecap:round; stroke-linejoin:round; stroke-width:2; stroke-opacity:0.1; fill:none" points="320.232,159.453 3552.76,159.453 "/>
<polyline clip-path="url(#clip0002)" style="stroke:#000000; stroke-linecap:round; stroke-linejoin:round; stroke-width:2; stroke-opacity:0.1; fill:none" points="320.232,1276.49 3552.76,1276.49 "/>
<polyline clip-path="url(#clip0002)" style="stroke:#000000; stroke-linecap:round; stroke-linejoin:round; stroke-width:2; stroke-opacity:0.1; fill:none" points="320.232,904.142 3552.76,904.142 "/>
<polyline clip-path="url(#clip0002)" style="stroke:#000000; stroke-linecap:round; stroke-linejoin:round; stroke-width:2; stroke-opacity:0.1; fill:none" points="320.232,531.798 3552.76,531.798 "/>
<polyline clip-path="url(#clip0002)" style="stroke:#000000; stroke-linecap:round; stroke-linejoin:round; stroke-width:2; stroke-opacity:0.1; fill:none" points="320.232,159.453 3552.76,159.453 "/>
<polyline clip-path="url(#clip0000)" style="stroke:#000000; stroke-linecap:round; stroke-linejoin:round; stroke-width:4; stroke-opacity:1; fill:none" points="320.232,1591.26 3552.76,1591.26 "/>
<polyline clip-path="url(#clip0000)" style="stroke:#000000; stroke-linecap:round; stroke-linejoin:round; stroke-width:4; stroke-opacity:1; fill:none" points="320.232,109.36 3552.76,109.36 "/>
<polyline clip-path="url(#clip0000)" style="stroke:#000000; stroke-linecap:round; stroke-linejoin:round; stroke-width:4; stroke-opacity:1; fill:none" points="392.539,1591.26 392.539,1572.36 "/>
<polyline clip-path="url(#clip0000)" style="stroke:#000000; stroke-linecap:round; stroke-linejoin:round; stroke-width:4; stroke-opacity:1; fill:none" points="1159.72,1591.26 1159.72,1572.36 "/>
<polyline clip-path="url(#clip0000)" style="stroke:#000000; stroke-linecap:round; stroke-linejoin:round; stroke-width:4; stroke-opacity:1; fill:none" points="1926.9,1591.26 1926.9,1572.36 "/>
<polyline clip-path="url(#clip0000)" style="stroke:#000000; stroke-linecap:round; stroke-linejoin:round; stroke-width:4; stroke-opacity:1; fill:none" points="2694.09,1591.26 2694.09,1572.36 "/>
<polyline clip-path="url(#clip0000)" style="stroke:#000000; stroke-linecap:round; stroke-linejoin:round; stroke-width:4; stroke-opacity:1; fill:none" points="3461.27,1591.26 3461.27,1572.36 "/>
<polyline clip-path="url(#clip0000)" style="stroke:#000000; stroke-linecap:round; stroke-linejoin:round; stroke-width:4; stroke-opacity:1; fill:none" points="392.539,109.36 392.539,128.258 "/>
<polyline clip-path="url(#clip0000)" style="stroke:#000000; stroke-linecap:round; stroke-linejoin:round; stroke-width:4; stroke-opacity:1; fill:none" points="1159.72,109.36 1159.72,128.258 "/>
<polyline clip-path="url(#clip0000)" style="stroke:#000000; stroke-linecap:round; stroke-linejoin:round; stroke-width:4; stroke-opacity:1; fill:none" points="1926.9,109.36 1926.9,128.258 "/>
<polyline clip-path="url(#clip0000)" style="stroke:#000000; stroke-linecap:round; stroke-linejoin:round; stroke-width:4; stroke-opacity:1; fill:none" points="2694.09,109.36 2694.09,128.258 "/>
<polyline clip-path="url(#clip0000)" style="stroke:#000000; stroke-linecap:round; stroke-linejoin:round; stroke-width:4; stroke-opacity:1; fill:none" points="3461.27,109.36 3461.27,128.258 "/>
<path clip-path="url(#clip0000)" d="M392.539 1634.7 Q388.025 1634.7 385.739 1639.16 Q383.482 1643.59 383.482 1652.5 Q383.482 1661.38 385.739 1665.84 Q388.025 1670.27 392.539 1670.27 Q397.082 1670.27 399.339 1665.84 Q401.625 1661.38 401.625 1652.5 Q401.625 1643.59 399.339 1639.16 Q397.082 1634.7 392.539 1634.7 M392.539 1630.07 Q399.802 1630.07 403.621 1635.83 Q407.469 1641.56 407.469 1652.5 Q407.469 1663.41 403.621 1669.17 Q399.802 1674.89 392.539 1674.89 Q385.276 1674.89 381.428 1669.17 Q377.608 1663.41 377.608 1652.5 Q377.608 1641.56 381.428 1635.83 Q385.276 1630.07 392.539 1630.07 Z" fill="#000000" fill-rule="nonzero" fill-opacity="1" /><path clip-path="url(#clip0000)" d="M1090.38 1669.14 L1099.93 1669.14 L1099.93 1636.18 L1089.54 1638.26 L1089.54 1632.94 L1099.87 1630.86 L1105.71 1630.86 L1105.71 1669.14 L1115.26 1669.14 L1115.26 1674.06 L1090.38 1674.06 L1090.38 1669.14 Z" fill="#000000" fill-rule="nonzero" fill-opacity="1" /><path clip-path="url(#clip0000)" d="M1139.57 1634.7 Q1135.05 1634.7 1132.77 1639.16 Q1130.51 1643.59 1130.51 1652.5 Q1130.51 1661.38 1132.77 1665.84 Q1135.05 1670.27 1139.57 1670.27 Q1144.11 1670.27 1146.37 1665.84 Q1148.65 1661.38 1148.65 1652.5 Q1148.65 1643.59 1146.37 1639.16 Q1144.11 1634.7 1139.57 1634.7 M1139.57 1630.07 Q1146.83 1630.07 1150.65 1635.83 Q1154.5 1641.56 1154.5 1652.5 Q1154.5 1663.41 1150.65 1669.17 Q1146.83 1674.89 1139.57 1674.89 Q1132.31 1674.89 1128.46 1669.17 Q1124.64 1663.41 1124.64 1652.5 Q1124.64 1641.56 1128.46 1635.83 Q1132.31 1630.07 1139.57 1630.07 Z" fill="#000000" fill-rule="nonzero" fill-opacity="1" /><path clip-path="url(#clip0000)" d="M1177.27 1634.7 Q1172.76 1634.7 1170.47 1639.16 Q1168.21 1643.59 1168.21 1652.5 Q1168.21 1661.38 1170.47 1665.84 Q1172.76 1670.27 1177.27 1670.27 Q1181.81 1670.27 1184.07 1665.84 Q1186.36 1661.38 1186.36 1652.5 Q1186.36 1643.59 1184.07 1639.16 Q1181.81 1634.7 1177.27 1634.7 M1177.27 1630.07 Q1184.53 1630.07 1188.35 1635.83 Q1192.2 1641.56 1192.2 1652.5 Q1192.2 1663.41 1188.35 1669.17 Q1184.53 1674.89 1177.27 1674.89 Q1170.01 1674.89 1166.16 1669.17 Q1162.34 1663.41 1162.34 1652.5 Q1162.34 1641.56 1166.16 1635.83 Q1170.01 1630.07 1177.27 1630.07 Z" fill="#000000" fill-rule="nonzero" fill-opacity="1" /><path clip-path="url(#clip0000)" d="M1214.97 1634.7 Q1210.46 1634.7 1208.17 1639.16 Q1205.92 1643.59 1205.92 1652.5 Q1205.92 1661.38 1208.17 1665.84 Q1210.46 1670.27 1214.97 1670.27 Q1219.52 1670.27 1221.77 1665.84 Q1224.06 1661.38 1224.06 1652.5 Q1224.06 1643.59 1221.77 1639.16 Q1219.52 1634.7 1214.97 1634.7 M1214.97 1630.07 Q1222.24 1630.07 1226.06 1635.83 Q1229.9 1641.56 1229.9 1652.5 Q1229.9 1663.41 1226.06 1669.17 Q1222.24 1674.89 1214.97 1674.89 Q1207.71 1674.89 1203.86 1669.17 Q1200.04 1663.41 1200.04 1652.5 Q1200.04 1641.56 1203.86 1635.83 Q1207.71 1630.07 1214.97 1630.07 Z" fill="#000000" fill-rule="nonzero" fill-opacity="1" /><path clip-path="url(#clip0000)" d="M1862.67 1669.14 L1883.07 1669.14 L1883.07 1674.06 L1855.64 1674.06 L1855.64 1669.14 Q1858.96 1665.69 1864.69 1659.91 Q1870.45 1654.09 1871.93 1652.41 Q1874.73 1649.26 1875.83 1647.09 Q1876.96 1644.89 1876.96 1642.78 Q1876.96 1639.33 1874.53 1637.16 Q1872.13 1634.99 1868.25 1634.99 Q1865.5 1634.99 1862.44 1635.95 Q1859.4 1636.9 1855.93 1638.84 L1855.93 1632.94 Q1859.46 1631.52 1862.52 1630.8 Q1865.59 1630.07 1868.14 1630.07 Q1874.85 1630.07 1878.84 1633.43 Q1882.84 1636.79 1882.84 1642.4 Q1882.84 1645.06 1881.82 1647.46 Q1880.84 1649.84 1878.21 1653.08 Q1877.48 1653.92 1873.61 1657.94 Q1869.73 1661.93 1862.67 1669.14 Z" fill="#000000" fill-rule="nonzero" fill-opacity="1" /><path clip-path="url(#clip0000)" d="M1907.84 1634.7 Q1903.32 1634.7 1901.04 1639.16 Q1898.78 1643.59 1898.78 1652.5 Q1898.78 1661.38 1901.04 1665.84 Q1903.32 1670.27 1907.84 1670.27 Q1912.38 1670.27 1914.64 1665.84 Q1916.92 1661.38 1916.92 1652.5 Q1916.92 1643.59 1914.64 1639.16 Q1912.38 1634.7 1907.84 1634.7 M1907.84 1630.07 Q1915.1 1630.07 1918.92 1635.83 Q1922.77 1641.56 1922.77 1652.5 Q1922.77 1663.41 1918.92 1669.17 Q1915.1 1674.89 1907.84 1674.89 Q1900.57 1674.89 1896.72 1669.17 Q1892.91 1663.41 1892.91 1652.5 Q1892.91 1641.56 1896.72 1635.83 Q1900.57 1630.07 1907.84 1630.07 Z" fill="#000000" fill-rule="nonzero" fill-opacity="1" /><path clip-path="url(#clip0000)" d="M1945.54 1634.7 Q1941.02 1634.7 1938.74 1639.16 Q1936.48 1643.59 1936.48 1652.5 Q1936.48 1661.38 1938.74 1665.84 Q1941.02 1670.27 1945.54 1670.27 Q1950.08 1670.27 1952.34 1665.84 Q1954.62 1661.38 1954.62 1652.5 Q1954.62 1643.59 1952.34 1639.16 Q1950.08 1634.7 1945.54 1634.7 M1945.54 1630.07 Q1952.8 1630.07 1956.62 1635.83 Q1960.47 1641.56 1960.47 1652.5 Q1960.47 1663.41 1956.62 1669.17 Q1952.8 1674.89 1945.54 1674.89 Q1938.28 1674.89 1934.43 1669.17 Q1930.61 1663.41 1930.61 1652.5 Q1930.61 1641.56 1934.43 1635.83 Q1938.28 1630.07 1945.54 1630.07 Z" fill="#000000" fill-rule="nonzero" fill-opacity="1" /><path clip-path="url(#clip0000)" d="M1983.24 1634.7 Q1978.73 1634.7 1976.44 1639.16 Q1974.18 1643.59 1974.18 1652.5 Q1974.18 1661.38 1976.44 1665.84 Q1978.73 1670.27 1983.24 1670.27 Q1987.78 1670.27 1990.04 1665.84 Q1992.33 1661.38 1992.33 1652.5 Q1992.33 1643.59 1990.04 1639.16 Q1987.78 1634.7 1983.24 1634.7 M1983.24 1630.07 Q1990.5 1630.07 1994.32 1635.83 Q1998.17 1641.56 1998.17 1652.5 Q1998.17 1663.41 1994.32 1669.17 Q1990.5 1674.89 1983.24 1674.89 Q1975.98 1674.89 1972.13 1669.17 Q1968.31 1663.41 1968.31 1652.5 Q1968.31 1641.56 1972.13 1635.83 Q1975.98 1630.07 1983.24 1630.07 Z" fill="#000000" fill-rule="nonzero" fill-opacity="1" /><path clip-path="url(#clip0000)" d="M2642.44 1650.76 Q2646.63 1651.66 2648.98 1654.5 Q2651.35 1657.33 2651.35 1661.5 Q2651.35 1667.89 2646.95 1671.39 Q2642.55 1674.89 2634.45 1674.89 Q2631.73 1674.89 2628.84 1674.35 Q2625.97 1673.82 2622.91 1672.75 L2622.91 1667.11 Q2625.34 1668.53 2628.23 1669.25 Q2631.12 1669.98 2634.28 1669.98 Q2639.78 1669.98 2642.64 1667.81 Q2645.53 1665.64 2645.53 1661.5 Q2645.53 1657.68 2642.84 1655.54 Q2640.18 1653.37 2635.41 1653.37 L2630.37 1653.37 L2630.37 1648.56 L2635.64 1648.56 Q2639.95 1648.56 2642.24 1646.86 Q2644.52 1645.12 2644.52 1641.88 Q2644.52 1638.55 2642.15 1636.79 Q2639.8 1634.99 2635.41 1634.99 Q2633 1634.99 2630.26 1635.51 Q2627.51 1636.04 2624.21 1637.13 L2624.21 1631.93 Q2627.54 1631 2630.43 1630.54 Q2633.35 1630.07 2635.93 1630.07 Q2642.58 1630.07 2646.46 1633.11 Q2650.34 1636.12 2650.34 1641.27 Q2650.34 1644.86 2648.28 1647.35 Q2646.23 1649.81 2642.44 1650.76 Z" fill="#000000" fill-rule="nonzero" fill-opacity="1" /><path clip-path="url(#clip0000)" d="M2674.93 1634.7 Q2670.42 1634.7 2668.13 1639.16 Q2665.88 1643.59 2665.88 1652.5 Q2665.88 1661.38 2668.13 1665.84 Q2670.42 1670.27 2674.93 1670.27 Q2679.47 1670.27 2681.73 1665.84 Q2684.02 1661.38 2684.02 1652.5 Q2684.02 1643.59 2681.73 1639.16 Q2679.47 1634.7 2674.93 1634.7 M2674.93 1630.07 Q2682.19 1630.07 2686.01 1635.83 Q2689.86 1641.56 2689.86 1652.5 Q2689.86 1663.41 2686.01 1669.17 Q2682.19 1674.89 2674.93 1674.89 Q2667.67 1674.89 2663.82 1669.17 Q2660 1663.41 2660 1652.5 Q2660 1641.56 2663.82 1635.83 Q2667.67 1630.07 2674.93 1630.07 Z" fill="#000000" fill-rule="nonzero" fill-opacity="1" /><path clip-path="url(#clip0000)" d="M2712.63 1634.7 Q2708.12 1634.7 2705.83 1639.16 Q2703.58 1643.59 2703.58 1652.5 Q2703.58 1661.38 2705.83 1665.84 Q2708.12 1670.27 2712.63 1670.27 Q2717.18 1670.27 2719.43 1665.84 Q2721.72 1661.38 2721.72 1652.5 Q2721.72 1643.59 2719.43 1639.16 Q2717.18 1634.7 2712.63 1634.7 M2712.63 1630.07 Q2719.9 1630.07 2723.72 1635.83 Q2727.56 1641.56 2727.56 1652.5 Q2727.56 1663.41 2723.72 1669.17 Q2719.9 1674.89 2712.63 1674.89 Q2705.37 1674.89 2701.52 1669.17 Q2697.7 1663.41 2697.7 1652.5 Q2697.7 1641.56 2701.52 1635.83 Q2705.37 1630.07 2712.63 1630.07 Z" fill="#000000" fill-rule="nonzero" fill-opacity="1" /><path clip-path="url(#clip0000)" d="M2750.34 1634.7 Q2745.82 1634.7 2743.54 1639.16 Q2741.28 1643.59 2741.28 1652.5 Q2741.28 1661.38 2743.54 1665.84 Q2745.82 1670.27 2750.34 1670.27 Q2754.88 1670.27 2757.14 1665.84 Q2759.42 1661.38 2759.42 1652.5 Q2759.42 1643.59 2757.14 1639.16 Q2754.88 1634.7 2750.34 1634.7 M2750.34 1630.07 Q2757.6 1630.07 2761.42 1635.83 Q2765.27 1641.56 2765.27 1652.5 Q2765.27 1663.41 2761.42 1669.17 Q2757.6 1674.89 2750.34 1674.89 Q2743.07 1674.89 2739.23 1669.17 Q2735.41 1663.41 2735.41 1652.5 Q2735.41 1641.56 2739.23 1635.83 Q2743.07 1630.07 2750.34 1630.07 Z" fill="#000000" fill-rule="nonzero" fill-opacity="1" /><path clip-path="url(#clip0000)" d="M3408.78 1635.95 L3394.02 1659.01 L3408.78 1659.01 L3408.78 1635.95 M3407.25 1630.86 L3414.6 1630.86 L3414.6 1659.01 L3420.76 1659.01 L3420.76 1663.87 L3414.6 1663.87 L3414.6 1674.06 L3408.78 1674.06 L3408.78 1663.87 L3389.28 1663.87 L3389.28 1658.23 L3407.25 1630.86 Z" fill="#000000" fill-rule="nonzero" fill-opacity="1" /><path clip-path="url(#clip0000)" d="M3442.92 1634.7 Q3438.41 1634.7 3436.12 1639.16 Q3433.87 1643.59 3433.87 1652.5 Q3433.87 1661.38 3436.12 1665.84 Q3438.41 1670.27 3442.92 1670.27 Q3447.47 1670.27 3449.72 1665.84 Q3452.01 1661.38 3452.01 1652.5 Q3452.01 1643.59 3449.72 1639.16 Q3447.47 1634.7 3442.92 1634.7 M3442.92 1630.07 Q3450.19 1630.07 3454.01 1635.83 Q3457.86 1641.56 3457.86 1652.5 Q3457.86 1663.41 3454.01 1669.17 Q3450.19 1674.89 3442.92 1674.89 Q3435.66 1674.89 3431.81 1669.17 Q3427.99 1663.41 3427.99 1652.5 Q3427.99 1641.56 3431.81 1635.83 Q3435.66 1630.07 3442.92 1630.07 Z" fill="#000000" fill-rule="nonzero" fill-opacity="1" /><path clip-path="url(#clip0000)" d="M3480.63 1634.7 Q3476.11 1634.7 3473.83 1639.16 Q3471.57 1643.59 3471.57 1652.5 Q3471.57 1661.38 3473.83 1665.84 Q3476.11 1670.27 3480.63 1670.27 Q3485.17 1670.27 3487.43 1665.84 Q3489.71 1661.38 3489.71 1652.5 Q3489.71 1643.59 3487.43 1639.16 Q3485.17 1634.7 3480.63 1634.7 M3480.63 1630.07 Q3487.89 1630.07 3491.71 1635.83 Q3495.56 1641.56 3495.56 1652.5 Q3495.56 1663.41 3491.71 1669.17 Q3487.89 1674.89 3480.63 1674.89 Q3473.36 1674.89 3469.52 1669.17 Q3465.7 1663.41 3465.7 1652.5 Q3465.7 1641.56 3469.52 1635.83 Q3473.36 1630.07 3480.63 1630.07 Z" fill="#000000" fill-rule="nonzero" fill-opacity="1" /><path clip-path="url(#clip0000)" d="M3518.33 1634.7 Q3513.82 1634.7 3511.53 1639.16 Q3509.27 1643.59 3509.27 1652.5 Q3509.27 1661.38 3511.53 1665.84 Q3513.82 1670.27 3518.33 1670.27 Q3522.87 1670.27 3525.13 1665.84 Q3527.41 1661.38 3527.41 1652.5 Q3527.41 1643.59 3525.13 1639.16 Q3522.87 1634.7 3518.33 1634.7 M3518.33 1630.07 Q3525.59 1630.07 3529.41 1635.83 Q3533.26 1641.56 3533.26 1652.5 Q3533.26 1663.41 3529.41 1669.17 Q3525.59 1674.89 3518.33 1674.89 Q3511.07 1674.89 3507.22 1669.17 Q3503.4 1663.41 3503.4 1652.5 Q3503.4 1641.56 3507.22 1635.83 Q3511.07 1630.07 3518.33 1630.07 Z" fill="#000000" fill-rule="nonzero" fill-opacity="1" /><path clip-path="url(#clip0000)" d="M1730.78 1752.37 Q1730.78 1745.42 1727.9 1741.6 Q1725.05 1737.78 1719.88 1737.78 Q1714.74 1737.78 1711.86 1741.6 Q1709.01 1745.42 1709.01 1752.37 Q1709.01 1759.28 1711.86 1763.1 Q1714.74 1766.92 1719.88 1766.92 Q1725.05 1766.92 1727.9 1763.1 Q1730.78 1759.28 1730.78 1752.37 M1737.17 1767.44 Q1737.17 1777.37 1732.76 1782.19 Q1728.35 1787.06 1719.26 1787.06 Q1715.89 1787.06 1712.9 1786.53 Q1709.92 1786.05 1707.1 1785.01 L1707.1 1778.79 Q1709.92 1780.32 1712.66 1781.05 Q1715.4 1781.78 1718.25 1781.78 Q1724.53 1781.78 1727.66 1778.48 Q1730.78 1775.22 1730.78 1768.58 L1730.78 1765.42 Q1728.8 1768.86 1725.71 1770.56 Q1722.62 1772.26 1718.32 1772.26 Q1711.17 1772.26 1706.79 1766.81 Q1702.42 1761.36 1702.42 1752.37 Q1702.42 1743.34 1706.79 1737.89 Q1711.17 1732.44 1718.32 1732.44 Q1722.62 1732.44 1725.71 1734.14 Q1728.8 1735.84 1730.78 1739.28 L1730.78 1733.38 L1737.17 1733.38 L1737.17 1767.44 Z" fill="#000000" fill-rule="nonzero" fill-opacity="1" /><path clip-path="url(#clip0000)" d="M1772.87 1739.35 Q1771.79 1738.72 1770.51 1738.44 Q1769.26 1738.13 1767.73 1738.13 Q1762.31 1738.13 1759.39 1741.67 Q1756.51 1745.18 1756.51 1751.78 L1756.51 1772.26 L1750.09 1772.26 L1750.09 1733.38 L1756.51 1733.38 L1756.51 1739.42 Q1758.53 1735.87 1761.76 1734.17 Q1764.98 1732.44 1769.6 1732.44 Q1770.26 1732.44 1771.06 1732.54 Q1771.86 1732.61 1772.83 1732.78 L1772.87 1739.35 Z" fill="#000000" fill-rule="nonzero" fill-opacity="1" /><path clip-path="url(#clip0000)" d="M1797.24 1752.72 Q1789.5 1752.72 1786.51 1754.49 Q1783.53 1756.26 1783.53 1760.53 Q1783.53 1763.93 1785.75 1765.94 Q1788.01 1767.92 1791.86 1767.92 Q1797.17 1767.92 1800.37 1764.17 Q1803.6 1760.39 1803.6 1754.14 L1803.6 1752.72 L1797.24 1752.72 M1809.98 1750.08 L1809.98 1772.26 L1803.6 1772.26 L1803.6 1766.36 Q1801.41 1769.9 1798.14 1771.6 Q1794.88 1773.27 1790.16 1773.27 Q1784.19 1773.27 1780.64 1769.94 Q1777.14 1766.57 1777.14 1760.94 Q1777.14 1754.38 1781.51 1751.05 Q1785.92 1747.72 1794.64 1747.72 L1803.6 1747.72 L1803.6 1747.09 Q1803.6 1742.68 1800.68 1740.28 Q1797.8 1737.85 1792.55 1737.85 Q1789.22 1737.85 1786.06 1738.65 Q1782.9 1739.45 1779.98 1741.05 L1779.98 1735.15 Q1783.49 1733.79 1786.79 1733.13 Q1790.09 1732.44 1793.21 1732.44 Q1801.65 1732.44 1805.82 1736.81 Q1809.98 1741.19 1809.98 1750.08 Z" fill="#000000" fill-rule="nonzero" fill-opacity="1" /><path clip-path="url(#clip0000)" d="M1848.73 1739.28 L1848.73 1718.24 L1855.12 1718.24 L1855.12 1772.26 L1848.73 1772.26 L1848.73 1766.43 Q1846.72 1769.9 1843.63 1771.6 Q1840.57 1773.27 1836.27 1773.27 Q1829.22 1773.27 1824.78 1767.65 Q1820.37 1762.02 1820.37 1752.85 Q1820.37 1743.69 1824.78 1738.06 Q1829.22 1732.44 1836.27 1732.44 Q1840.57 1732.44 1843.63 1734.14 Q1846.72 1735.81 1848.73 1739.28 M1826.96 1752.85 Q1826.96 1759.9 1829.85 1763.93 Q1832.76 1767.92 1837.83 1767.92 Q1842.9 1767.92 1845.82 1763.93 Q1848.73 1759.9 1848.73 1752.85 Q1848.73 1745.81 1845.82 1741.81 Q1842.9 1737.78 1837.83 1737.78 Q1832.76 1737.78 1829.85 1741.81 Q1826.96 1745.81 1826.96 1752.85 Z" fill="#000000" fill-rule="nonzero" fill-opacity="1" /><path clip-path="url(#clip0000)" d="M1868.28 1733.38 L1874.67 1733.38 L1874.67 1772.26 L1868.28 1772.26 L1868.28 1733.38 M1868.28 1718.24 L1874.67 1718.24 L1874.67 1726.33 L1868.28 1726.33 L1868.28 1718.24 Z" fill="#000000" fill-rule="nonzero" fill-opacity="1" /><path clip-path="url(#clip0000)" d="M1921.3 1751.22 L1921.3 1754.35 L1891.93 1754.35 Q1892.34 1760.94 1895.89 1764.42 Q1899.46 1767.85 1905.82 1767.85 Q1909.5 1767.85 1912.94 1766.95 Q1916.41 1766.05 1919.81 1764.24 L1919.81 1770.28 Q1916.37 1771.74 1912.76 1772.51 Q1909.15 1773.27 1905.44 1773.27 Q1896.13 1773.27 1890.68 1767.85 Q1885.26 1762.44 1885.26 1753.2 Q1885.26 1743.65 1890.4 1738.06 Q1895.57 1732.44 1904.32 1732.44 Q1912.17 1732.44 1916.72 1737.51 Q1921.3 1742.54 1921.3 1751.22 M1914.91 1749.35 Q1914.84 1744.1 1911.96 1740.98 Q1909.12 1737.85 1904.39 1737.85 Q1899.05 1737.85 1895.82 1740.87 Q1892.62 1743.9 1892.14 1749.38 L1914.91 1749.35 Z" fill="#000000" fill-rule="nonzero" fill-opacity="1" /><path clip-path="url(#clip0000)" d="M1964.12 1748.79 L1964.12 1772.26 L1957.73 1772.26 L1957.73 1749 Q1957.73 1743.48 1955.57 1740.74 Q1953.42 1737.99 1949.12 1737.99 Q1943.94 1737.99 1940.96 1741.29 Q1937.97 1744.59 1937.97 1750.28 L1937.97 1772.26 L1931.55 1772.26 L1931.55 1733.38 L1937.97 1733.38 L1937.97 1739.42 Q1940.26 1735.91 1943.35 1734.17 Q1946.48 1732.44 1950.54 1732.44 Q1957.24 1732.44 1960.68 1736.6 Q1964.12 1740.74 1964.12 1748.79 Z" fill="#000000" fill-rule="nonzero" fill-opacity="1" /><path clip-path="url(#clip0000)" d="M1983.18 1722.33 L1983.18 1733.38 L1996.34 1733.38 L1996.34 1738.34 L1983.18 1738.34 L1983.18 1759.45 Q1983.18 1764.21 1984.46 1765.56 Q1985.78 1766.92 1989.77 1766.92 L1996.34 1766.92 L1996.34 1772.26 L1989.77 1772.26 Q1982.38 1772.26 1979.57 1769.52 Q1976.75 1766.74 1976.75 1759.45 L1976.75 1738.34 L1972.07 1738.34 L1972.07 1733.38 L1976.75 1733.38 L1976.75 1722.33 L1983.18 1722.33 Z" fill="#000000" fill-rule="nonzero" fill-opacity="1" /><path clip-path="url(#clip0000)" d="M2052.14 1734.52 L2052.14 1740.56 Q2049.43 1739.17 2046.51 1738.48 Q2043.59 1737.78 2040.47 1737.78 Q2035.71 1737.78 2033.32 1739.24 Q2030.96 1740.7 2030.96 1743.62 Q2030.96 1745.84 2032.66 1747.12 Q2034.36 1748.37 2039.5 1749.52 L2041.68 1750.01 Q2048.49 1751.47 2051.34 1754.14 Q2054.22 1756.78 2054.22 1761.53 Q2054.22 1766.95 2049.91 1770.11 Q2045.64 1773.27 2038.14 1773.27 Q2035.02 1773.27 2031.61 1772.65 Q2028.25 1772.06 2024.5 1770.84 L2024.5 1764.24 Q2028.04 1766.08 2031.48 1767.02 Q2034.91 1767.92 2038.28 1767.92 Q2042.8 1767.92 2045.23 1766.4 Q2047.66 1764.83 2047.66 1762.02 Q2047.66 1759.42 2045.89 1758.03 Q2044.15 1756.64 2038.21 1755.35 L2035.99 1754.83 Q2030.05 1753.58 2027.41 1751.01 Q2024.77 1748.41 2024.77 1743.9 Q2024.77 1738.41 2028.66 1735.42 Q2032.55 1732.44 2039.71 1732.44 Q2043.25 1732.44 2046.37 1732.96 Q2049.5 1733.48 2052.14 1734.52 Z" fill="#000000" fill-rule="nonzero" fill-opacity="1" /><path clip-path="url(#clip0000)" d="M2070.71 1722.33 L2070.71 1733.38 L2083.87 1733.38 L2083.87 1738.34 L2070.71 1738.34 L2070.71 1759.45 Q2070.71 1764.21 2072 1765.56 Q2073.32 1766.92 2077.31 1766.92 L2083.87 1766.92 L2083.87 1772.26 L2077.31 1772.26 Q2069.91 1772.26 2067.1 1769.52 Q2064.29 1766.74 2064.29 1759.45 L2064.29 1738.34 L2059.6 1738.34 L2059.6 1733.38 L2064.29 1733.38 L2064.29 1722.33 L2070.71 1722.33 Z" fill="#000000" fill-rule="nonzero" fill-opacity="1" /><path clip-path="url(#clip0000)" d="M2125.54 1751.22 L2125.54 1754.35 L2096.16 1754.35 Q2096.58 1760.94 2100.12 1764.42 Q2103.7 1767.85 2110.05 1767.85 Q2113.73 1767.85 2117.17 1766.95 Q2120.64 1766.05 2124.05 1764.24 L2124.05 1770.28 Q2120.61 1771.74 2117 1772.51 Q2113.39 1773.27 2109.67 1773.27 Q2100.36 1773.27 2094.91 1767.85 Q2089.5 1762.44 2089.5 1753.2 Q2089.5 1743.65 2094.64 1738.06 Q2099.81 1732.44 2108.56 1732.44 Q2116.41 1732.44 2120.95 1737.51 Q2125.54 1742.54 2125.54 1751.22 M2119.15 1749.35 Q2119.08 1744.1 2116.2 1740.98 Q2113.35 1737.85 2108.63 1737.85 Q2103.28 1737.85 2100.05 1740.87 Q2096.86 1743.9 2096.37 1749.38 L2119.15 1749.35 Z" fill="#000000" fill-rule="nonzero" fill-opacity="1" /><path clip-path="url(#clip0000)" d="M2142.2 1766.43 L2142.2 1787.06 L2135.78 1787.06 L2135.78 1733.38 L2142.2 1733.38 L2142.2 1739.28 Q2144.22 1735.81 2147.27 1734.14 Q2150.36 1732.44 2154.64 1732.44 Q2161.72 1732.44 2166.13 1738.06 Q2170.57 1743.69 2170.57 1752.85 Q2170.57 1762.02 2166.13 1767.65 Q2161.72 1773.27 2154.64 1773.27 Q2150.36 1773.27 2147.27 1771.6 Q2144.22 1769.9 2142.2 1766.43 M2163.94 1752.85 Q2163.94 1745.81 2161.02 1741.81 Q2158.14 1737.78 2153.07 1737.78 Q2148 1737.78 2145.09 1741.81 Q2142.2 1745.81 2142.2 1752.85 Q2142.2 1759.9 2145.09 1763.93 Q2148 1767.92 2153.07 1767.92 Q2158.14 1767.92 2161.02 1763.93 Q2163.94 1759.9 2163.94 1752.85 Z" fill="#000000" fill-rule="nonzero" fill-opacity="1" /><polyline clip-path="url(#clip0000)" style="stroke:#000000; stroke-linecap:round; stroke-linejoin:round; stroke-width:4; stroke-opacity:1; fill:none" points="320.232,1591.26 320.232,109.36 "/>
<polyline clip-path="url(#clip0000)" style="stroke:#000000; stroke-linecap:round; stroke-linejoin:round; stroke-width:4; stroke-opacity:1; fill:none" points="3552.76,1591.26 3552.76,109.36 "/>
<polyline clip-path="url(#clip0000)" style="stroke:#000000; stroke-linecap:round; stroke-linejoin:round; stroke-width:4; stroke-opacity:1; fill:none" points="320.232,1276.49 339.13,1276.49 "/>
<polyline clip-path="url(#clip0000)" style="stroke:#000000; stroke-linecap:round; stroke-linejoin:round; stroke-width:4; stroke-opacity:1; fill:none" points="320.232,904.142 339.13,904.142 "/>
<polyline clip-path="url(#clip0000)" style="stroke:#000000; stroke-linecap:round; stroke-linejoin:round; stroke-width:4; stroke-opacity:1; fill:none" points="320.232,531.798 339.13,531.798 "/>
<polyline clip-path="url(#clip0000)" style="stroke:#000000; stroke-linecap:round; stroke-linejoin:round; stroke-width:4; stroke-opacity:1; fill:none" points="320.232,159.453 339.13,159.453 "/>
<polyline clip-path="url(#clip0000)" style="stroke:#000000; stroke-linecap:round; stroke-linejoin:round; stroke-width:4; stroke-opacity:1; fill:none" points="3552.76,1276.49 3533.86,1276.49 "/>
<polyline clip-path="url(#clip0000)" style="stroke:#000000; stroke-linecap:round; stroke-linejoin:round; stroke-width:4; stroke-opacity:1; fill:none" points="3552.76,904.142 3533.86,904.142 "/>
<polyline clip-path="url(#clip0000)" style="stroke:#000000; stroke-linecap:round; stroke-linejoin:round; stroke-width:4; stroke-opacity:1; fill:none" points="3552.76,531.798 3533.86,531.798 "/>
<polyline clip-path="url(#clip0000)" style="stroke:#000000; stroke-linecap:round; stroke-linejoin:round; stroke-width:4; stroke-opacity:1; fill:none" points="3552.76,159.453 3533.86,159.453 "/>
<path clip-path="url(#clip0000)" d="M196.296 1258.73 Q191.782 1258.73 189.496 1263.19 Q187.239 1267.62 187.239 1276.53 Q187.239 1285.41 189.496 1289.87 Q191.782 1294.3 196.296 1294.3 Q200.839 1294.3 203.096 1289.87 Q205.382 1285.41 205.382 1276.53 Q205.382 1267.62 203.096 1263.19 Q200.839 1258.73 196.296 1258.73 M196.296 1254.11 Q203.559 1254.11 207.378 1259.86 Q211.226 1265.59 211.226 1276.53 Q211.226 1287.44 207.378 1293.2 Q203.559 1298.93 196.296 1298.93 Q189.033 1298.93 185.185 1293.2 Q181.366 1287.44 181.366 1276.53 Q181.366 1265.59 185.185 1259.86 Q189.033 1254.11 196.296 1254.11 Z" fill="#000000" fill-rule="nonzero" fill-opacity="1" /><path clip-path="url(#clip0000)" d="M221.498 1290.74 L227.604 1290.74 L227.604 1298.09 L221.498 1298.09 L221.498 1290.74 Z" fill="#000000" fill-rule="nonzero" fill-opacity="1" /><path clip-path="url(#clip0000)" d="M241.348 1293.17 L250.896 1293.17 L250.896 1260.21 L240.509 1262.29 L240.509 1256.97 L250.839 1254.89 L256.683 1254.89 L256.683 1293.17 L266.232 1293.17 L266.232 1298.09 L241.348 1298.09 L241.348 1293.17 Z" fill="#000000" fill-rule="nonzero" fill-opacity="1" /><path clip-path="url(#clip0000)" d="M196.759 886.39 Q192.245 886.39 189.959 890.846 Q187.702 895.273 187.702 904.185 Q187.702 913.069 189.959 917.525 Q192.245 921.952 196.759 921.952 Q201.302 921.952 203.559 917.525 Q205.845 913.069 205.845 904.185 Q205.845 895.273 203.559 890.846 Q201.302 886.39 196.759 886.39 M196.759 881.761 Q204.022 881.761 207.841 887.519 Q211.689 893.248 211.689 904.185 Q211.689 915.094 207.841 920.852 Q204.022 926.581 196.759 926.581 Q189.496 926.581 185.648 920.852 Q181.828 915.094 181.828 904.185 Q181.828 893.248 185.648 887.519 Q189.496 881.761 196.759 881.761 Z" fill="#000000" fill-rule="nonzero" fill-opacity="1" /><path clip-path="url(#clip0000)" d="M221.961 918.393 L228.067 918.393 L228.067 925.742 L221.961 925.742 L221.961 918.393 Z" fill="#000000" fill-rule="nonzero" fill-opacity="1" /><path clip-path="url(#clip0000)" d="M245.833 920.823 L266.232 920.823 L266.232 925.742 L238.802 925.742 L238.802 920.823 Q242.129 917.38 247.858 911.593 Q253.616 905.777 255.092 904.099 Q257.899 900.945 258.998 898.775 Q260.127 896.576 260.127 894.463 Q260.127 891.02 257.696 888.85 Q255.295 886.68 251.417 886.68 Q248.668 886.68 245.601 887.635 Q242.563 888.589 239.091 890.528 L239.091 884.625 Q242.621 883.208 245.688 882.484 Q248.755 881.761 251.301 881.761 Q258.014 881.761 262.007 885.117 Q266 888.474 266 894.087 Q266 896.749 264.988 899.151 Q264.004 901.523 261.371 904.764 Q260.647 905.603 256.77 909.625 Q252.893 913.618 245.833 920.823 Z" fill="#000000" fill-rule="nonzero" fill-opacity="1" /><path clip-path="url(#clip0000)" d="M195.573 514.046 Q191.059 514.046 188.773 518.502 Q186.516 522.929 186.516 531.841 Q186.516 540.724 188.773 545.18 Q191.059 549.607 195.573 549.607 Q200.115 549.607 202.372 545.18 Q204.658 540.724 204.658 531.841 Q204.658 522.929 202.372 518.502 Q200.115 514.046 195.573 514.046 M195.573 509.416 Q202.835 509.416 206.655 515.174 Q210.503 520.904 210.503 531.841 Q210.503 542.75 206.655 548.508 Q202.835 554.237 195.573 554.237 Q188.31 554.237 184.462 548.508 Q180.642 542.75 180.642 531.841 Q180.642 520.904 184.462 515.174 Q188.31 509.416 195.573 509.416 Z" fill="#000000" fill-rule="nonzero" fill-opacity="1" /><path clip-path="url(#clip0000)" d="M220.775 546.048 L226.88 546.048 L226.88 553.398 L220.775 553.398 L220.775 546.048 Z" fill="#000000" fill-rule="nonzero" fill-opacity="1" /><path clip-path="url(#clip0000)" d="M257.32 530.105 Q261.516 531.002 263.859 533.838 Q266.232 536.673 266.232 540.84 Q266.232 547.234 261.834 550.736 Q257.436 554.237 249.334 554.237 Q246.614 554.237 243.72 553.687 Q240.856 553.166 237.789 552.096 L237.789 546.453 Q240.219 547.871 243.113 548.594 Q246.006 549.318 249.16 549.318 Q254.658 549.318 257.523 547.148 Q260.416 544.977 260.416 540.84 Q260.416 537.02 257.725 534.879 Q255.063 532.709 250.289 532.709 L245.254 532.709 L245.254 527.906 L250.52 527.906 Q254.832 527.906 257.117 526.199 Q259.403 524.463 259.403 521.222 Q259.403 517.894 257.031 516.129 Q254.687 514.335 250.289 514.335 Q247.887 514.335 245.138 514.856 Q242.389 515.377 239.091 516.476 L239.091 511.268 Q242.418 510.342 245.312 509.879 Q248.234 509.416 250.81 509.416 Q257.465 509.416 261.342 512.455 Q265.219 515.464 265.219 520.614 Q265.219 524.202 263.165 526.691 Q261.11 529.15 257.32 530.105 Z" fill="#000000" fill-rule="nonzero" fill-opacity="1" /><path clip-path="url(#clip0000)" d="M194.155 141.701 Q189.641 141.701 187.355 146.157 Q185.098 150.585 185.098 159.497 Q185.098 168.38 187.355 172.836 Q189.641 177.263 194.155 177.263 Q198.698 177.263 200.955 172.836 Q203.24 168.38 203.24 159.497 Q203.24 150.585 200.955 146.157 Q198.698 141.701 194.155 141.701 M194.155 137.072 Q201.417 137.072 205.237 142.83 Q209.085 148.559 209.085 159.497 Q209.085 170.405 205.237 176.163 Q201.417 181.892 194.155 181.892 Q186.892 181.892 183.044 176.163 Q179.224 170.405 179.224 159.497 Q179.224 148.559 183.044 142.83 Q186.892 137.072 194.155 137.072 Z" fill="#000000" fill-rule="nonzero" fill-opacity="1" /><path clip-path="url(#clip0000)" d="M219.357 173.704 L225.462 173.704 L225.462 181.053 L219.357 181.053 L219.357 173.704 Z" fill="#000000" fill-rule="nonzero" fill-opacity="1" /><path clip-path="url(#clip0000)" d="M254.253 142.946 L239.496 166.007 L254.253 166.007 L254.253 142.946 M252.719 137.853 L260.069 137.853 L260.069 166.007 L266.232 166.007 L266.232 170.868 L260.069 170.868 L260.069 181.053 L254.253 181.053 L254.253 170.868 L234.751 170.868 L234.751 165.226 L252.719 137.853 Z" fill="#000000" fill-rule="nonzero" fill-opacity="1" /><path clip-path="url(#clip0000)" d="M70.7836 1196.07 L70.7836 1189.3 L103.422 1177.15 L70.7836 1164.99 L70.7836 1158.22 L109.672 1172.81 L109.672 1181.49 L70.7836 1196.07 Z" fill="#000000" fill-rule="nonzero" fill-opacity="1" /><path clip-path="url(#clip0000)" d="M90.1238 1131.73 Q90.1238 1139.47 91.8946 1142.46 Q93.6655 1145.45 97.9363 1145.45 Q101.339 1145.45 103.353 1143.22 Q105.332 1140.97 105.332 1137.11 Q105.332 1131.8 101.582 1128.61 Q97.7974 1125.38 91.5474 1125.38 L90.1238 1125.38 L90.1238 1131.73 M87.4849 1118.99 L109.672 1118.99 L109.672 1125.38 L103.77 1125.38 Q107.311 1127.56 109.013 1130.83 Q110.679 1134.09 110.679 1138.81 Q110.679 1144.79 107.346 1148.33 Q103.978 1151.83 98.3529 1151.83 Q91.7905 1151.83 88.4572 1147.46 Q85.1238 1143.05 85.1238 1134.33 L85.1238 1125.38 L84.4988 1125.38 Q80.0891 1125.38 77.6933 1128.29 Q75.2628 1131.17 75.2628 1136.42 Q75.2628 1139.75 76.0614 1142.91 Q76.86 1146.07 78.4572 1148.99 L72.5545 1148.99 Q71.2003 1145.48 70.5406 1142.18 Q69.8461 1138.88 69.8461 1135.76 Q69.8461 1127.32 74.2211 1123.15 Q78.5961 1118.99 87.4849 1118.99 Z" fill="#000000" fill-rule="nonzero" fill-opacity="1" /><path clip-path="url(#clip0000)" d="M55.6448 1105.83 L55.6448 1099.44 L109.672 1099.44 L109.672 1105.83 L55.6448 1105.83 Z" fill="#000000" fill-rule="nonzero" fill-opacity="1" /><path clip-path="url(#clip0000)" d="M70.7836 1086.07 L70.7836 1079.68 L109.672 1079.68 L109.672 1086.07 L70.7836 1086.07 M55.6448 1086.07 L55.6448 1079.68 L63.7351 1079.68 L63.7351 1086.07 L55.6448 1086.07 Z" fill="#000000" fill-rule="nonzero" fill-opacity="1" /><path clip-path="url(#clip0000)" d="M76.6864 1040.72 L55.6448 1040.72 L55.6448 1034.33 L109.672 1034.33 L109.672 1040.72 L103.839 1040.72 Q107.311 1042.74 109.013 1045.83 Q110.679 1048.88 110.679 1053.19 Q110.679 1060.24 105.054 1064.68 Q99.4293 1069.09 90.2627 1069.09 Q81.0961 1069.09 75.4711 1064.68 Q69.8461 1060.24 69.8461 1053.19 Q69.8461 1048.88 71.5475 1045.83 Q73.2142 1042.74 76.6864 1040.72 M90.2627 1062.49 Q97.3113 1062.49 101.339 1059.61 Q105.332 1056.7 105.332 1051.63 Q105.332 1046.56 101.339 1043.64 Q97.3113 1040.72 90.2627 1040.72 Q83.2141 1040.72 79.2211 1043.64 Q75.1933 1046.56 75.1933 1051.63 Q75.1933 1056.7 79.2211 1059.61 Q83.2141 1062.49 90.2627 1062.49 Z" fill="#000000" fill-rule="nonzero" fill-opacity="1" /><path clip-path="url(#clip0000)" d="M90.1238 1003.5 Q90.1238 1011.24 91.8946 1014.23 Q93.6655 1017.22 97.9363 1017.22 Q101.339 1017.22 103.353 1014.99 Q105.332 1012.74 105.332 1008.88 Q105.332 1003.57 101.582 1000.38 Q97.7974 997.147 91.5474 997.147 L90.1238 997.147 L90.1238 1003.5 M87.4849 990.759 L109.672 990.759 L109.672 997.147 L103.77 997.147 Q107.311 999.335 109.013 1002.6 Q110.679 1005.86 110.679 1010.58 Q110.679 1016.56 107.346 1020.1 Q103.978 1023.61 98.3529 1023.61 Q91.7905 1023.61 88.4572 1019.23 Q85.1238 1014.82 85.1238 1006.11 L85.1238 997.147 L84.4988 997.147 Q80.0891 997.147 77.6933 1000.06 Q75.2628 1002.95 75.2628 1008.19 Q75.2628 1011.52 76.0614 1014.68 Q76.86 1017.84 78.4572 1020.76 L72.5545 1020.76 Q71.2003 1017.25 70.5406 1013.95 Q69.8461 1010.65 69.8461 1007.53 Q69.8461 999.092 74.2211 994.925 Q78.5961 990.759 87.4849 990.759 Z" fill="#000000" fill-rule="nonzero" fill-opacity="1" /><path clip-path="url(#clip0000)" d="M59.742 971.279 L70.7836 971.279 L70.7836 958.12 L75.7489 958.12 L75.7489 971.279 L96.8599 971.279 Q101.617 971.279 102.971 969.995 Q104.325 968.675 104.325 964.682 L104.325 958.12 L109.672 958.12 L109.672 964.682 Q109.672 972.078 106.929 974.891 Q104.152 977.703 96.8599 977.703 L75.7489 977.703 L75.7489 982.391 L70.7836 982.391 L70.7836 977.703 L59.742 977.703 L59.742 971.279 Z" fill="#000000" fill-rule="nonzero" fill-opacity="1" /><path clip-path="url(#clip0000)" d="M70.7836 949.717 L70.7836 943.328 L109.672 943.328 L109.672 949.717 L70.7836 949.717 M55.6448 949.717 L55.6448 943.328 L63.7351 943.328 L63.7351 949.717 L55.6448 949.717 Z" fill="#000000" fill-rule="nonzero" fill-opacity="1" /><path clip-path="url(#clip0000)" d="M75.2628 914.891 Q75.2628 920.03 79.2905 923.016 Q83.2836 926.002 90.2627 926.002 Q97.2418 926.002 101.27 923.051 Q105.263 920.064 105.263 914.891 Q105.263 909.787 101.235 906.801 Q97.2071 903.815 90.2627 903.815 Q83.353 903.815 79.3253 906.801 Q75.2628 909.787 75.2628 914.891 M69.8461 914.891 Q69.8461 906.558 75.2628 901.801 Q80.6794 897.044 90.2627 897.044 Q99.8113 897.044 105.263 901.801 Q110.679 906.558 110.679 914.891 Q110.679 923.259 105.263 928.016 Q99.8113 932.738 90.2627 932.738 Q80.6794 932.738 75.2628 928.016 Q69.8461 923.259 69.8461 914.891 Z" fill="#000000" fill-rule="nonzero" fill-opacity="1" /><path clip-path="url(#clip0000)" d="M86.2002 854.127 L109.672 854.127 L109.672 860.516 L86.4086 860.516 Q80.8877 860.516 78.1447 862.669 Q75.4017 864.822 75.4017 869.127 Q75.4017 874.301 78.7003 877.287 Q81.9989 880.273 87.6933 880.273 L109.672 880.273 L109.672 886.697 L70.7836 886.697 L70.7836 880.273 L76.8253 880.273 Q73.3183 877.981 71.5822 874.891 Q69.8461 871.766 69.8461 867.704 Q69.8461 861.002 74.0128 857.565 Q78.1447 854.127 86.2002 854.127 Z" fill="#000000" fill-rule="nonzero" fill-opacity="1" /><path clip-path="url(#clip0000)" d="M75.2628 803.711 Q75.2628 808.85 79.2905 811.836 Q83.2836 814.822 90.2627 814.822 Q97.2418 814.822 101.27 811.871 Q105.263 808.885 105.263 803.711 Q105.263 798.607 101.235 795.621 Q97.2071 792.635 90.2627 792.635 Q83.353 792.635 79.3253 795.621 Q75.2628 798.607 75.2628 803.711 M69.8461 803.711 Q69.8461 795.378 75.2628 790.621 Q80.6794 785.864 90.2627 785.864 Q99.8113 785.864 105.263 790.621 Q110.679 795.378 110.679 803.711 Q110.679 812.079 105.263 816.836 Q99.8113 821.558 90.2627 821.558 Q80.6794 821.558 75.2628 816.836 Q69.8461 812.079 69.8461 803.711 Z" fill="#000000" fill-rule="nonzero" fill-opacity="1" /><path clip-path="url(#clip0000)" d="M90.2627 747.357 Q83.2141 747.357 79.2211 750.274 Q75.1933 753.156 75.1933 758.225 Q75.1933 763.294 79.2211 766.211 Q83.2141 769.093 90.2627 769.093 Q97.3113 769.093 101.339 766.211 Q105.332 763.294 105.332 758.225 Q105.332 753.156 101.339 750.274 Q97.3113 747.357 90.2627 747.357 M76.6864 769.093 Q73.2142 767.079 71.5475 764.024 Q69.8461 760.933 69.8461 756.663 Q69.8461 749.579 75.4711 745.17 Q81.0961 740.725 90.2627 740.725 Q99.4293 740.725 105.054 745.17 Q110.679 749.579 110.679 756.663 Q110.679 760.933 109.013 764.024 Q107.311 767.079 103.839 769.093 L109.672 769.093 L109.672 775.517 L55.6448 775.517 L55.6448 769.093 L76.6864 769.093 Z" fill="#000000" fill-rule="nonzero" fill-opacity="1" /><path clip-path="url(#clip0000)" d="M70.7836 730.135 L70.7836 723.746 L110.367 723.746 Q117.797 723.746 121.131 726.593 Q124.464 729.406 124.464 735.69 L124.464 738.121 L119.047 738.121 L119.047 736.42 Q119.047 732.774 117.346 731.454 Q115.679 730.135 110.367 730.135 L70.7836 730.135 M55.6448 730.135 L55.6448 723.746 L63.7351 723.746 L63.7351 730.135 L55.6448 730.135 Z" fill="#000000" fill-rule="nonzero" fill-opacity="1" /><path clip-path="url(#clip0000)" d="M88.6308 677.114 L91.7557 677.114 L91.7557 706.489 Q98.3529 706.073 101.825 702.531 Q105.263 698.955 105.263 692.6 Q105.263 688.92 104.36 685.482 Q103.457 682.01 101.652 678.607 L107.693 678.607 Q109.151 682.045 109.915 685.656 Q110.679 689.267 110.679 692.982 Q110.679 702.288 105.263 707.739 Q99.846 713.156 90.6099 713.156 Q81.0614 713.156 75.4711 708.017 Q69.8461 702.843 69.8461 694.093 Q69.8461 686.246 74.9156 681.698 Q79.9503 677.114 88.6308 677.114 M86.7558 683.503 Q81.5127 683.573 78.3878 686.455 Q75.2628 689.302 75.2628 694.024 Q75.2628 699.371 78.2836 702.6 Q81.3044 705.795 86.7905 706.281 L86.7558 683.503 Z" fill="#000000" fill-rule="nonzero" fill-opacity="1" /><path clip-path="url(#clip0000)" d="M72.2767 638.642 L78.2489 638.642 Q76.7558 641.351 76.0267 644.094 Q75.2628 646.802 75.2628 649.58 Q75.2628 655.795 79.2211 659.233 Q83.1447 662.67 90.2627 662.67 Q97.3807 662.67 101.339 659.233 Q105.263 655.795 105.263 649.58 Q105.263 646.802 104.533 644.094 Q103.77 641.351 102.277 638.642 L108.179 638.642 Q109.429 641.316 110.054 644.198 Q110.679 647.045 110.679 650.274 Q110.679 659.059 105.158 664.233 Q99.6376 669.406 90.2627 669.406 Q80.7489 669.406 75.2975 664.198 Q69.8461 658.955 69.8461 649.858 Q69.8461 646.906 70.4711 644.094 Q71.0614 641.281 72.2767 638.642 Z" fill="#000000" fill-rule="nonzero" fill-opacity="1" /><path clip-path="url(#clip0000)" d="M59.742 621.212 L70.7836 621.212 L70.7836 608.052 L75.7489 608.052 L75.7489 621.212 L96.8599 621.212 Q101.617 621.212 102.971 619.927 Q104.325 618.608 104.325 614.615 L104.325 608.052 L109.672 608.052 L109.672 614.615 Q109.672 622.011 106.929 624.823 Q104.152 627.635 96.8599 627.635 L75.7489 627.635 L75.7489 632.323 L70.7836 632.323 L70.7836 627.635 L59.742 627.635 L59.742 621.212 Z" fill="#000000" fill-rule="nonzero" fill-opacity="1" /><path clip-path="url(#clip0000)" d="M70.7836 599.65 L70.7836 593.261 L109.672 593.261 L109.672 599.65 L70.7836 599.65 M55.6448 599.65 L55.6448 593.261 L63.7351 593.261 L63.7351 599.65 L55.6448 599.65 Z" fill="#000000" fill-rule="nonzero" fill-opacity="1" /><path clip-path="url(#clip0000)" d="M70.7836 584.476 L70.7836 577.705 L103.422 565.552 L70.7836 553.4 L70.7836 546.629 L109.672 561.212 L109.672 569.893 L70.7836 584.476 Z" fill="#000000" fill-rule="nonzero" fill-opacity="1" /><path clip-path="url(#clip0000)" d="M88.6308 504.546 L91.7557 504.546 L91.7557 533.921 Q98.3529 533.504 101.825 529.962 Q105.263 526.386 105.263 520.032 Q105.263 516.351 104.36 512.914 Q103.457 509.442 101.652 506.039 L107.693 506.039 Q109.151 509.476 109.915 513.087 Q110.679 516.699 110.679 520.414 Q110.679 529.719 105.263 535.171 Q99.846 540.587 90.6099 540.587 Q81.0614 540.587 75.4711 535.448 Q69.8461 530.275 69.8461 521.525 Q69.8461 513.678 74.9156 509.129 Q79.9503 504.546 88.6308 504.546 M86.7558 510.935 Q81.5127 511.004 78.3878 513.886 Q75.2628 516.733 75.2628 521.456 Q75.2628 526.803 78.2836 530.032 Q81.3044 533.226 86.7905 533.712 L86.7558 510.935 Z" fill="#000000" fill-rule="nonzero" fill-opacity="1" /><path clip-path="url(#clip0000)" d="M970.677 12.096 L1008.92 12.096 L1008.92 18.9825 L978.86 18.9825 L978.86 36.8875 L1007.66 36.8875 L1007.66 43.7741 L978.86 43.7741 L978.86 65.6895 L1009.65 65.6895 L1009.65 72.576 L970.677 72.576 L970.677 12.096 Z" fill="#000000" fill-rule="nonzero" fill-opacity="1" /><path clip-path="url(#clip0000)" d="M1017.42 27.2059 L1025.32 27.2059 L1039.5 65.2844 L1053.68 27.2059 L1061.58 27.2059 L1044.57 72.576 L1034.44 72.576 L1017.42 27.2059 Z" fill="#000000" fill-rule="nonzero" fill-opacity="1" /><path clip-path="url(#clip0000)" d="M1110.68 48.0275 L1110.68 51.6733 L1076.41 51.6733 Q1076.89 59.3701 1081.02 63.421 Q1085.2 67.4314 1092.61 67.4314 Q1096.9 67.4314 1100.91 66.3781 Q1104.96 65.3249 1108.93 63.2184 L1108.93 70.267 Q1104.92 71.9684 1100.71 72.8596 Q1096.5 73.7508 1092.16 73.7508 Q1081.31 73.7508 1074.95 67.4314 Q1068.63 61.1119 1068.63 50.3365 Q1068.63 39.1965 1074.62 32.6746 Q1080.66 26.1121 1090.87 26.1121 Q1100.02 26.1121 1105.33 32.0264 Q1110.68 37.9003 1110.68 48.0275 M1103.22 45.84 Q1103.14 39.7232 1099.78 36.0774 Q1096.46 32.4315 1090.95 32.4315 Q1084.71 32.4315 1080.94 35.9558 Q1077.22 39.4801 1076.65 45.8805 L1103.22 45.84 Z" fill="#000000" fill-rule="nonzero" fill-opacity="1" /><path clip-path="url(#clip0000)" d="M1149.2 34.1734 Q1147.94 33.4443 1146.45 33.1202 Q1144.99 32.7556 1143.21 32.7556 Q1136.89 32.7556 1133.48 36.8875 Q1130.12 40.9789 1130.12 48.6757 L1130.12 72.576 L1122.63 72.576 L1122.63 27.2059 L1130.12 27.2059 L1130.12 34.2544 Q1132.47 30.1225 1136.24 28.1376 Q1140.01 26.1121 1145.39 26.1121 Q1146.16 26.1121 1147.09 26.2337 Q1148.03 26.3147 1149.16 26.5172 L1149.2 34.1734 Z" fill="#000000" fill-rule="nonzero" fill-opacity="1" /><path clip-path="url(#clip0000)" d="M1175.9 76.7889 Q1172.74 84.8907 1169.74 87.3618 Q1166.74 89.8329 1161.72 89.8329 L1155.76 89.8329 L1155.76 83.5945 L1160.14 83.5945 Q1163.22 83.5945 1164.92 82.1361 Q1166.62 80.6778 1168.69 75.2496 L1170.02 71.8468 L1151.67 27.2059 L1159.57 27.2059 L1173.75 62.6918 L1187.93 27.2059 L1195.83 27.2059 L1175.9 76.7889 Z" fill="#000000" fill-rule="nonzero" fill-opacity="1" /><path clip-path="url(#clip0000)" d="M1265.06 49.9314 Q1265.06 41.7081 1261.65 37.0496 Q1258.29 32.3505 1252.38 32.3505 Q1246.46 32.3505 1243.06 37.0496 Q1239.7 41.7081 1239.7 49.9314 Q1239.7 58.1548 1243.06 62.8538 Q1246.46 67.5124 1252.38 67.5124 Q1258.29 67.5124 1261.65 62.8538 Q1265.06 58.1548 1265.06 49.9314 M1239.7 34.0924 Q1242.05 30.0415 1245.61 28.0971 Q1249.22 26.1121 1254.2 26.1121 Q1262.46 26.1121 1267.61 32.6746 Q1272.79 39.2371 1272.79 49.9314 Q1272.79 60.6258 1267.61 67.1883 Q1262.46 73.7508 1254.2 73.7508 Q1249.22 73.7508 1245.61 71.8063 Q1242.05 69.8214 1239.7 65.7705 L1239.7 72.576 L1232.2 72.576 L1232.2 9.54393 L1239.7 9.54393 L1239.7 34.0924 Z" fill="#000000" fill-rule="nonzero" fill-opacity="1" /><path clip-path="url(#clip0000)" d="M1305.77 49.7694 Q1296.73 49.7694 1293.25 51.8354 Q1289.77 53.9013 1289.77 58.8839 Q1289.77 62.8538 1292.36 65.2034 Q1294.99 67.5124 1299.49 67.5124 Q1305.69 67.5124 1309.41 63.1374 Q1313.18 58.7219 1313.18 51.4303 L1313.18 49.7694 L1305.77 49.7694 M1320.63 46.6907 L1320.63 72.576 L1313.18 72.576 L1313.18 65.6895 Q1310.63 69.8214 1306.82 71.8063 Q1303.01 73.7508 1297.5 73.7508 Q1290.54 73.7508 1286.4 69.8619 Q1282.31 65.9325 1282.31 59.3701 Q1282.31 51.7138 1287.42 47.825 Q1292.56 43.9361 1302.73 43.9361 L1313.18 43.9361 L1313.18 43.2069 Q1313.18 38.0623 1309.78 35.2672 Q1306.42 32.4315 1300.3 32.4315 Q1296.41 32.4315 1292.72 33.3632 Q1289.04 34.295 1285.64 36.1584 L1285.64 29.2718 Q1289.73 27.692 1293.57 26.9223 Q1297.42 26.1121 1301.07 26.1121 Q1310.91 26.1121 1315.77 31.2163 Q1320.63 36.3204 1320.63 46.6907 Z" fill="#000000" fill-rule="nonzero" fill-opacity="1" /><path clip-path="url(#clip0000)" d="M1343.36 14.324 L1343.36 27.2059 L1358.71 27.2059 L1358.71 32.9987 L1343.36 32.9987 L1343.36 57.6282 Q1343.36 63.1779 1344.86 64.7578 Q1346.4 66.3376 1351.06 66.3376 L1358.71 66.3376 L1358.71 72.576 L1351.06 72.576 Q1342.43 72.576 1339.15 69.3758 Q1335.87 66.1351 1335.87 57.6282 L1335.87 32.9987 L1330.4 32.9987 L1330.4 27.2059 L1335.87 27.2059 L1335.87 14.324 L1343.36 14.324 Z" fill="#000000" fill-rule="nonzero" fill-opacity="1" /><path clip-path="url(#clip0000)" d="M1401.17 28.9478 L1401.17 35.9153 Q1398.01 34.1734 1394.81 33.3227 Q1391.65 32.4315 1388.41 32.4315 Q1381.16 32.4315 1377.15 37.0496 Q1373.13 41.6271 1373.13 49.9314 Q1373.13 58.2358 1377.15 62.8538 Q1381.16 67.4314 1388.41 67.4314 Q1391.65 67.4314 1394.81 66.5807 Q1398.01 65.6895 1401.17 63.9476 L1401.17 70.8341 Q1398.05 72.2924 1394.69 73.0216 Q1391.36 73.7508 1387.6 73.7508 Q1377.35 73.7508 1371.31 67.3098 Q1365.28 60.8689 1365.28 49.9314 Q1365.28 38.832 1371.35 32.472 Q1377.47 26.1121 1388.08 26.1121 Q1391.53 26.1121 1394.81 26.8413 Q1398.09 27.5299 1401.17 28.9478 Z" fill="#000000" fill-rule="nonzero" fill-opacity="1" /><path clip-path="url(#clip0000)" d="M1451.84 45.1919 L1451.84 72.576 L1444.39 72.576 L1444.39 45.4349 Q1444.39 38.994 1441.88 35.7938 Q1439.37 32.5936 1434.34 32.5936 Q1428.31 32.5936 1424.82 36.4419 Q1421.34 40.2903 1421.34 46.9338 L1421.34 72.576 L1413.85 72.576 L1413.85 9.54393 L1421.34 9.54393 L1421.34 34.2544 Q1424.01 30.163 1427.62 28.1376 Q1431.27 26.1121 1436 26.1121 Q1443.82 26.1121 1447.83 30.9732 Q1451.84 35.7938 1451.84 45.1919 Z" fill="#000000" fill-rule="nonzero" fill-opacity="1" /><path clip-path="url(#clip0000)" d="M1493.08 27.2059 L1500.54 27.2059 L1500.54 72.576 L1493.08 72.576 L1493.08 27.2059 M1493.08 9.54393 L1500.54 9.54393 L1500.54 18.9825 L1493.08 18.9825 L1493.08 9.54393 Z" fill="#000000" fill-rule="nonzero" fill-opacity="1" /><path clip-path="url(#clip0000)" d="M1545.06 28.5427 L1545.06 35.5912 Q1541.9 33.9709 1538.49 33.1607 Q1535.09 32.3505 1531.44 32.3505 Q1525.89 32.3505 1523.1 34.0519 Q1520.34 35.7533 1520.34 39.156 Q1520.34 41.7486 1522.33 43.2475 Q1524.31 44.7058 1530.31 46.0426 L1532.86 46.6097 Q1540.8 48.3111 1544.12 51.4303 Q1547.49 54.509 1547.49 60.0587 Q1547.49 66.3781 1542.46 70.0644 Q1537.48 73.7508 1528.73 73.7508 Q1525.08 73.7508 1521.11 73.0216 Q1517.18 72.3329 1512.81 70.9151 L1512.81 63.2184 Q1516.94 65.3654 1520.95 66.4591 Q1524.96 67.5124 1528.89 67.5124 Q1534.16 67.5124 1536.99 65.73 Q1539.83 63.9071 1539.83 60.6258 Q1539.83 57.5877 1537.76 55.9673 Q1535.74 54.3469 1528.81 52.8481 L1526.22 52.2405 Q1519.29 50.7821 1516.21 47.7845 Q1513.13 44.7463 1513.13 39.4801 Q1513.13 33.0797 1517.67 29.5959 Q1522.21 26.1121 1530.55 26.1121 Q1534.68 26.1121 1538.33 26.7198 Q1541.98 27.3274 1545.06 28.5427 Z" fill="#000000" fill-rule="nonzero" fill-opacity="1" /><path clip-path="url(#clip0000)" d="M1608.69 9.54393 L1608.69 15.7418 L1601.57 15.7418 Q1597.55 15.7418 1595.97 17.3622 Q1594.44 18.9825 1594.44 23.1955 L1594.44 27.2059 L1606.71 27.2059 L1606.71 32.9987 L1594.44 32.9987 L1594.44 72.576 L1586.94 72.576 L1586.94 32.9987 L1579.81 32.9987 L1579.81 27.2059 L1586.94 27.2059 L1586.94 24.0462 Q1586.94 16.471 1590.47 13.0277 Q1593.99 9.54393 1601.65 9.54393 L1608.69 9.54393 Z" fill="#000000" fill-rule="nonzero" fill-opacity="1" /><path clip-path="url(#clip0000)" d="M1641.22 34.1734 Q1639.97 33.4443 1638.47 33.1202 Q1637.01 32.7556 1635.23 32.7556 Q1628.91 32.7556 1625.51 36.8875 Q1622.14 40.9789 1622.14 48.6757 L1622.14 72.576 L1614.65 72.576 L1614.65 27.2059 L1622.14 27.2059 L1622.14 34.2544 Q1624.49 30.1225 1628.26 28.1376 Q1632.03 26.1121 1637.42 26.1121 Q1638.19 26.1121 1639.12 26.2337 Q1640.05 26.3147 1641.18 26.5172 L1641.22 34.1734 Z" fill="#000000" fill-rule="nonzero" fill-opacity="1" /><path clip-path="url(#clip0000)" d="M1686.03 48.0275 L1686.03 51.6733 L1651.76 51.6733 Q1652.24 59.3701 1656.37 63.421 Q1660.55 67.4314 1667.96 67.4314 Q1672.25 67.4314 1676.26 66.3781 Q1680.31 65.3249 1684.28 63.2184 L1684.28 70.267 Q1680.27 71.9684 1676.06 72.8596 Q1671.85 73.7508 1667.51 73.7508 Q1656.66 73.7508 1650.3 67.4314 Q1643.98 61.1119 1643.98 50.3365 Q1643.98 39.1965 1649.97 32.6746 Q1656.01 26.1121 1666.22 26.1121 Q1675.37 26.1121 1680.68 32.0264 Q1686.03 37.9003 1686.03 48.0275 M1678.57 45.84 Q1678.49 39.7232 1675.13 36.0774 Q1671.81 32.4315 1666.3 32.4315 Q1660.06 32.4315 1656.29 35.9558 Q1652.57 39.4801 1652 45.8805 L1678.57 45.84 Z" fill="#000000" fill-rule="nonzero" fill-opacity="1" /><path clip-path="url(#clip0000)" d="M1727.18 28.5427 L1727.18 35.5912 Q1724.02 33.9709 1720.62 33.1607 Q1717.22 32.3505 1713.57 32.3505 Q1708.02 32.3505 1705.23 34.0519 Q1702.47 35.7533 1702.47 39.156 Q1702.47 41.7486 1704.46 43.2475 Q1706.44 44.7058 1712.44 46.0426 L1714.99 46.6097 Q1722.93 48.3111 1726.25 51.4303 Q1729.61 54.509 1729.61 60.0587 Q1729.61 66.3781 1724.59 70.0644 Q1719.61 73.7508 1710.86 73.7508 Q1707.21 73.7508 1703.24 73.0216 Q1699.31 72.3329 1694.94 70.9151 L1694.94 63.2184 Q1699.07 65.3654 1703.08 66.4591 Q1707.09 67.5124 1711.02 67.5124 Q1716.29 67.5124 1719.12 65.73 Q1721.96 63.9071 1721.96 60.6258 Q1721.96 57.5877 1719.89 55.9673 Q1717.87 54.3469 1710.94 52.8481 L1708.35 52.2405 Q1701.42 50.7821 1698.34 47.7845 Q1695.26 44.7463 1695.26 39.4801 Q1695.26 33.0797 1699.8 29.5959 Q1704.34 26.1121 1712.68 26.1121 Q1716.81 26.1121 1720.46 26.7198 Q1724.11 27.3274 1727.18 28.5427 Z" fill="#000000" fill-rule="nonzero" fill-opacity="1" /><path clip-path="url(#clip0000)" d="M1779.2 45.1919 L1779.2 72.576 L1771.74 72.576 L1771.74 45.4349 Q1771.74 38.994 1769.23 35.7938 Q1766.72 32.5936 1761.7 32.5936 Q1755.66 32.5936 1752.18 36.4419 Q1748.69 40.2903 1748.69 46.9338 L1748.69 72.576 L1741.2 72.576 L1741.2 9.54393 L1748.69 9.54393 L1748.69 34.2544 Q1751.37 30.163 1754.97 28.1376 Q1758.62 26.1121 1763.36 26.1121 Q1771.18 26.1121 1775.19 30.9732 Q1779.2 35.7938 1779.2 45.1919 Z" fill="#000000" fill-rule="nonzero" fill-opacity="1" /><path clip-path="url(#clip0000)" d="M1794.06 9.54393 L1801.52 9.54393 L1801.52 72.576 L1794.06 72.576 L1794.06 9.54393 Z" fill="#000000" fill-rule="nonzero" fill-opacity="1" /><path clip-path="url(#clip0000)" d="M1835.99 76.7889 Q1832.83 84.8907 1829.83 87.3618 Q1826.84 89.8329 1821.81 89.8329 L1815.86 89.8329 L1815.86 83.5945 L1820.23 83.5945 Q1823.31 83.5945 1825.01 82.1361 Q1826.71 80.6778 1828.78 75.2496 L1830.12 71.8468 L1811.77 27.2059 L1819.67 27.2059 L1833.84 62.6918 L1848.02 27.2059 L1855.92 27.2059 L1835.99 76.7889 Z" fill="#000000" fill-rule="nonzero" fill-opacity="1" /><path clip-path="url(#clip0000)" d="M1921.51 28.5427 L1921.51 35.5912 Q1918.35 33.9709 1914.94 33.1607 Q1911.54 32.3505 1907.89 32.3505 Q1902.34 32.3505 1899.55 34.0519 Q1896.8 35.7533 1896.8 39.156 Q1896.8 41.7486 1898.78 43.2475 Q1900.76 44.7058 1906.76 46.0426 L1909.31 46.6097 Q1917.25 48.3111 1920.57 51.4303 Q1923.94 54.509 1923.94 60.0587 Q1923.94 66.3781 1918.91 70.0644 Q1913.93 73.7508 1905.18 73.7508 Q1901.53 73.7508 1897.56 73.0216 Q1893.64 72.3329 1889.26 70.9151 L1889.26 63.2184 Q1893.39 65.3654 1897.4 66.4591 Q1901.41 67.5124 1905.34 67.5124 Q1910.61 67.5124 1913.44 65.73 Q1916.28 63.9071 1916.28 60.6258 Q1916.28 57.5877 1914.21 55.9673 Q1912.19 54.3469 1905.26 52.8481 L1902.67 52.2405 Q1895.74 50.7821 1892.66 47.7845 Q1889.58 44.7463 1889.58 39.4801 Q1889.58 33.0797 1894.12 29.5959 Q1898.66 26.1121 1907 26.1121 Q1911.14 26.1121 1914.78 26.7198 Q1918.43 27.3274 1921.51 28.5427 Z" fill="#000000" fill-rule="nonzero" fill-opacity="1" /><path clip-path="url(#clip0000)" d="M1935.81 27.2059 L1943.26 27.2059 L1943.26 72.576 L1935.81 72.576 L1935.81 27.2059 M1935.81 9.54393 L1943.26 9.54393 L1943.26 18.9825 L1935.81 18.9825 L1935.81 9.54393 Z" fill="#000000" fill-rule="nonzero" fill-opacity="1" /><path clip-path="url(#clip0000)" d="M1994.18 35.9153 Q1996.97 30.8922 2000.86 28.5022 Q2004.75 26.1121 2010.02 26.1121 Q2017.11 26.1121 2020.96 31.0947 Q2024.8 36.0368 2024.8 45.1919 L2024.8 72.576 L2017.31 72.576 L2017.31 45.4349 Q2017.31 38.913 2015 35.7533 Q2012.69 32.5936 2007.95 32.5936 Q2002.16 32.5936 1998.8 36.4419 Q1995.43 40.2903 1995.43 46.9338 L1995.43 72.576 L1987.94 72.576 L1987.94 45.4349 Q1987.94 38.8725 1985.63 35.7533 Q1983.32 32.5936 1978.5 32.5936 Q1972.79 32.5936 1969.43 36.4824 Q1966.07 40.3308 1966.07 46.9338 L1966.07 72.576 L1958.57 72.576 L1958.57 27.2059 L1966.07 27.2059 L1966.07 34.2544 Q1968.62 30.082 1972.18 28.0971 Q1975.75 26.1121 1980.65 26.1121 Q1985.59 26.1121 1989.03 28.6237 Q1992.52 31.1352 1994.18 35.9153 Z" fill="#000000" fill-rule="nonzero" fill-opacity="1" /><path clip-path="url(#clip0000)" d="M2038.9 54.671 L2038.9 27.2059 L2046.35 27.2059 L2046.35 54.3874 Q2046.35 60.8284 2048.87 64.0691 Q2051.38 67.2693 2056.4 67.2693 Q2062.44 67.2693 2065.92 63.421 Q2069.44 59.5726 2069.44 52.9291 L2069.44 27.2059 L2076.9 27.2059 L2076.9 72.576 L2069.44 72.576 L2069.44 65.6084 Q2066.73 69.7404 2063.13 71.7658 Q2059.56 73.7508 2054.82 73.7508 Q2047 73.7508 2042.95 68.8897 Q2038.9 64.0286 2038.9 54.671 M2057.66 26.1121 L2057.66 26.1121 Z" fill="#000000" fill-rule="nonzero" fill-opacity="1" /><path clip-path="url(#clip0000)" d="M2092.25 9.54393 L2099.7 9.54393 L2099.7 72.576 L2092.25 72.576 L2092.25 9.54393 Z" fill="#000000" fill-rule="nonzero" fill-opacity="1" /><path clip-path="url(#clip0000)" d="M2135.92 49.7694 Q2126.89 49.7694 2123.4 51.8354 Q2119.92 53.9013 2119.92 58.8839 Q2119.92 62.8538 2122.51 65.2034 Q2125.14 67.5124 2129.64 67.5124 Q2135.84 67.5124 2139.57 63.1374 Q2143.33 58.7219 2143.33 51.4303 L2143.33 49.7694 L2135.92 49.7694 M2150.79 46.6907 L2150.79 72.576 L2143.33 72.576 L2143.33 65.6895 Q2140.78 69.8214 2136.97 71.8063 Q2133.17 73.7508 2127.66 73.7508 Q2120.69 73.7508 2116.56 69.8619 Q2112.47 65.9325 2112.47 59.3701 Q2112.47 51.7138 2117.57 47.825 Q2122.71 43.9361 2132.88 43.9361 L2143.33 43.9361 L2143.33 43.2069 Q2143.33 38.0623 2139.93 35.2672 Q2136.57 32.4315 2130.45 32.4315 Q2126.56 32.4315 2122.88 33.3632 Q2119.19 34.295 2115.79 36.1584 L2115.79 29.2718 Q2119.88 27.692 2123.73 26.9223 Q2127.58 26.1121 2131.22 26.1121 Q2141.06 26.1121 2145.93 31.2163 Q2150.79 36.3204 2150.79 46.6907 Z" fill="#000000" fill-rule="nonzero" fill-opacity="1" /><path clip-path="url(#clip0000)" d="M2173.51 14.324 L2173.51 27.2059 L2188.87 27.2059 L2188.87 32.9987 L2173.51 32.9987 L2173.51 57.6282 Q2173.51 63.1779 2175.01 64.7578 Q2176.55 66.3376 2181.21 66.3376 L2188.87 66.3376 L2188.87 72.576 L2181.21 72.576 Q2172.58 72.576 2169.3 69.3758 Q2166.02 66.1351 2166.02 57.6282 L2166.02 32.9987 L2160.55 32.9987 L2160.55 27.2059 L2166.02 27.2059 L2166.02 14.324 L2173.51 14.324 Z" fill="#000000" fill-rule="nonzero" fill-opacity="1" /><path clip-path="url(#clip0000)" d="M2237.48 48.0275 L2237.48 51.6733 L2203.21 51.6733 Q2203.69 59.3701 2207.82 63.421 Q2212 67.4314 2219.41 67.4314 Q2223.7 67.4314 2227.71 66.3781 Q2231.76 65.3249 2235.73 63.2184 L2235.73 70.267 Q2231.72 71.9684 2227.51 72.8596 Q2223.3 73.7508 2218.96 73.7508 Q2208.11 73.7508 2201.75 67.4314 Q2195.43 61.1119 2195.43 50.3365 Q2195.43 39.1965 2201.42 32.6746 Q2207.46 26.1121 2217.67 26.1121 Q2226.82 26.1121 2232.13 32.0264 Q2237.48 37.9003 2237.48 48.0275 M2230.02 45.84 Q2229.94 39.7232 2226.58 36.0774 Q2223.26 32.4315 2217.75 32.4315 Q2211.51 32.4315 2207.74 35.9558 Q2204.02 39.4801 2203.45 45.8805 L2230.02 45.84 Z" fill="#000000" fill-rule="nonzero" fill-opacity="1" /><path clip-path="url(#clip0000)" d="M2279.57 34.0924 L2279.57 9.54393 L2287.02 9.54393 L2287.02 72.576 L2279.57 72.576 L2279.57 65.7705 Q2277.22 69.8214 2273.61 71.8063 Q2270.05 73.7508 2265.02 73.7508 Q2256.8 73.7508 2251.61 67.1883 Q2246.47 60.6258 2246.47 49.9314 Q2246.47 39.2371 2251.61 32.6746 Q2256.8 26.1121 2265.02 26.1121 Q2270.05 26.1121 2273.61 28.0971 Q2277.22 30.0415 2279.57 34.0924 M2254.17 49.9314 Q2254.17 58.1548 2257.53 62.8538 Q2260.93 67.5124 2266.85 67.5124 Q2272.76 67.5124 2276.16 62.8538 Q2279.57 58.1548 2279.57 49.9314 Q2279.57 41.7081 2276.16 37.0496 Q2272.76 32.3505 2266.85 32.3505 Q2260.93 32.3505 2257.53 37.0496 Q2254.17 41.7081 2254.17 49.9314 Z" fill="#000000" fill-rule="nonzero" fill-opacity="1" /><path clip-path="url(#clip0000)" d="M2304.28 62.2867 L2312.82 62.2867 L2312.82 69.2543 L2306.18 82.2172 L2300.95 82.2172 L2304.28 69.2543 L2304.28 62.2867 Z" fill="#000000" fill-rule="nonzero" fill-opacity="1" /><path clip-path="url(#clip0000)" d="M2384.04 28.5427 L2384.04 35.5912 Q2380.88 33.9709 2377.48 33.1607 Q2374.07 32.3505 2370.43 32.3505 Q2364.88 32.3505 2362.08 34.0519 Q2359.33 35.7533 2359.33 39.156 Q2359.33 41.7486 2361.31 43.2475 Q2363.3 44.7058 2369.29 46.0426 L2371.84 46.6097 Q2379.78 48.3111 2383.11 51.4303 Q2386.47 54.509 2386.47 60.0587 Q2386.47 66.3781 2381.45 70.0644 Q2376.46 73.7508 2367.71 73.7508 Q2364.07 73.7508 2360.1 73.0216 Q2356.17 72.3329 2351.79 70.9151 L2351.79 63.2184 Q2355.92 65.3654 2359.93 66.4591 Q2363.95 67.5124 2367.87 67.5124 Q2373.14 67.5124 2375.98 65.73 Q2378.81 63.9071 2378.81 60.6258 Q2378.81 57.5877 2376.75 55.9673 Q2374.72 54.3469 2367.79 52.8481 L2365.2 52.2405 Q2358.27 50.7821 2355.2 47.7845 Q2352.12 44.7463 2352.12 39.4801 Q2352.12 33.0797 2356.65 29.5959 Q2361.19 26.1121 2369.54 26.1121 Q2373.67 26.1121 2377.31 26.7198 Q2380.96 27.3274 2384.04 28.5427 Z" fill="#000000" fill-rule="nonzero" fill-opacity="1" /><path clip-path="url(#clip0000)" d="M2415.92 32.4315 Q2409.92 32.4315 2406.44 37.1306 Q2402.96 41.7891 2402.96 49.9314 Q2402.96 58.0738 2406.4 62.7728 Q2409.88 67.4314 2415.92 67.4314 Q2421.87 67.4314 2425.36 62.7323 Q2428.84 58.0333 2428.84 49.9314 Q2428.84 41.8701 2425.36 37.1711 Q2421.87 32.4315 2415.92 32.4315 M2415.92 26.1121 Q2425.64 26.1121 2431.19 32.4315 Q2436.74 38.7509 2436.74 49.9314 Q2436.74 61.0714 2431.19 67.4314 Q2425.64 73.7508 2415.92 73.7508 Q2406.16 73.7508 2400.61 67.4314 Q2395.1 61.0714 2395.1 49.9314 Q2395.1 38.7509 2400.61 32.4315 Q2406.16 26.1121 2415.92 26.1121 Z" fill="#000000" fill-rule="nonzero" fill-opacity="1" /><path clip-path="url(#clip0000)" d="M2475.47 27.2059 L2482.92 27.2059 L2482.92 72.576 L2475.47 72.576 L2475.47 27.2059 M2475.47 9.54393 L2482.92 9.54393 L2482.92 18.9825 L2475.47 18.9825 L2475.47 9.54393 Z" fill="#000000" fill-rule="nonzero" fill-opacity="1" /><path clip-path="url(#clip0000)" d="M2505.89 14.324 L2505.89 27.2059 L2521.24 27.2059 L2521.24 32.9987 L2505.89 32.9987 L2505.89 57.6282 Q2505.89 63.1779 2507.39 64.7578 Q2508.93 66.3376 2513.59 66.3376 L2521.24 66.3376 L2521.24 72.576 L2513.59 72.576 Q2504.96 72.576 2501.68 69.3758 Q2498.39 66.1351 2498.39 57.6282 L2498.39 32.9987 L2492.93 32.9987 L2492.93 27.2059 L2498.39 27.2059 L2498.39 14.324 L2505.89 14.324 Z" fill="#000000" fill-rule="nonzero" fill-opacity="1" /><path clip-path="url(#clip0000)" d="M2564.63 65.7705 L2564.63 89.8329 L2557.13 89.8329 L2557.13 27.2059 L2564.63 27.2059 L2564.63 34.0924 Q2566.98 30.0415 2570.54 28.0971 Q2574.15 26.1121 2579.13 26.1121 Q2587.39 26.1121 2592.54 32.6746 Q2597.72 39.2371 2597.72 49.9314 Q2597.72 60.6258 2592.54 67.1883 Q2587.39 73.7508 2579.13 73.7508 Q2574.15 73.7508 2570.54 71.8063 Q2566.98 69.8214 2564.63 65.7705 M2589.99 49.9314 Q2589.99 41.7081 2586.58 37.0496 Q2583.22 32.3505 2577.31 32.3505 Q2571.39 32.3505 2567.99 37.0496 Q2564.63 41.7081 2564.63 49.9314 Q2564.63 58.1548 2567.99 62.8538 Q2571.39 67.5124 2577.31 67.5124 Q2583.22 67.5124 2586.58 62.8538 Q2589.99 58.1548 2589.99 49.9314 Z" fill="#000000" fill-rule="nonzero" fill-opacity="1" /><path clip-path="url(#clip0000)" d="M2610.08 9.54393 L2617.53 9.54393 L2617.53 72.576 L2610.08 72.576 L2610.08 9.54393 Z" fill="#000000" fill-rule="nonzero" fill-opacity="1" /><path clip-path="url(#clip0000)" d="M2653.75 49.7694 Q2644.71 49.7694 2641.23 51.8354 Q2637.75 53.9013 2637.75 58.8839 Q2637.75 62.8538 2640.34 65.2034 Q2642.97 67.5124 2647.47 67.5124 Q2653.67 67.5124 2657.39 63.1374 Q2661.16 58.7219 2661.16 51.4303 L2661.16 49.7694 L2653.75 49.7694 M2668.61 46.6907 L2668.61 72.576 L2661.16 72.576 L2661.16 65.6895 Q2658.61 69.8214 2654.8 71.8063 Q2650.99 73.7508 2645.48 73.7508 Q2638.52 73.7508 2634.38 69.8619 Q2630.29 65.9325 2630.29 59.3701 Q2630.29 51.7138 2635.4 47.825 Q2640.54 43.9361 2650.71 43.9361 L2661.16 43.9361 L2661.16 43.2069 Q2661.16 38.0623 2657.76 35.2672 Q2654.4 32.4315 2648.28 32.4315 Q2644.39 32.4315 2640.7 33.3632 Q2637.02 34.295 2633.61 36.1584 L2633.61 29.2718 Q2637.71 27.692 2641.55 26.9223 Q2645.4 26.1121 2649.05 26.1121 Q2658.89 26.1121 2663.75 31.2163 Q2668.61 36.3204 2668.61 46.6907 Z" fill="#000000" fill-rule="nonzero" fill-opacity="1" /><path clip-path="url(#clip0000)" d="M2691.34 14.324 L2691.34 27.2059 L2706.69 27.2059 L2706.69 32.9987 L2691.34 32.9987 L2691.34 57.6282 Q2691.34 63.1779 2692.84 64.7578 Q2694.38 66.3376 2699.04 66.3376 L2706.69 66.3376 L2706.69 72.576 L2699.04 72.576 Q2690.41 72.576 2687.13 69.3758 Q2683.85 66.1351 2683.85 57.6282 L2683.85 32.9987 L2678.38 32.9987 L2678.38 27.2059 L2683.85 27.2059 L2683.85 14.324 L2691.34 14.324 Z" fill="#000000" fill-rule="nonzero" fill-opacity="1" /><path clip-path="url(#clip0000)" d="M2755.3 48.0275 L2755.3 51.6733 L2721.03 51.6733 Q2721.52 59.3701 2725.65 63.421 Q2729.82 67.4314 2737.24 67.4314 Q2741.53 67.4314 2745.54 66.3781 Q2749.59 65.3249 2753.56 63.2184 L2753.56 70.267 Q2749.55 71.9684 2745.34 72.8596 Q2741.13 73.7508 2736.79 73.7508 Q2725.93 73.7508 2719.57 67.4314 Q2713.25 61.1119 2713.25 50.3365 Q2713.25 39.1965 2719.25 32.6746 Q2725.29 26.1121 2735.49 26.1121 Q2744.65 26.1121 2749.96 32.0264 Q2755.3 37.9003 2755.3 48.0275 M2747.85 45.84 Q2747.77 39.7232 2744.41 36.0774 Q2741.08 32.4315 2735.58 32.4315 Q2729.34 32.4315 2725.57 35.9558 Q2721.84 39.4801 2721.28 45.8805 L2747.85 45.84 Z" fill="#000000" fill-rule="nonzero" fill-opacity="1" /><path clip-path="url(#clip0000)" d="M2788.16 49.7694 Q2779.12 49.7694 2775.64 51.8354 Q2772.15 53.9013 2772.15 58.8839 Q2772.15 62.8538 2774.75 65.2034 Q2777.38 67.5124 2781.88 67.5124 Q2788.08 67.5124 2791.8 63.1374 Q2795.57 58.7219 2795.57 51.4303 L2795.57 49.7694 L2788.16 49.7694 M2803.02 46.6907 L2803.02 72.576 L2795.57 72.576 L2795.57 65.6895 Q2793.02 69.8214 2789.21 71.8063 Q2785.4 73.7508 2779.89 73.7508 Q2772.92 73.7508 2768.79 69.8619 Q2764.7 65.9325 2764.7 59.3701 Q2764.7 51.7138 2769.81 47.825 Q2774.95 43.9361 2785.12 43.9361 L2795.57 43.9361 L2795.57 43.2069 Q2795.57 38.0623 2792.17 35.2672 Q2788.8 32.4315 2782.69 32.4315 Q2778.8 32.4315 2775.11 33.3632 Q2771.43 34.295 2768.02 36.1584 L2768.02 29.2718 Q2772.11 27.692 2775.96 26.9223 Q2779.81 26.1121 2783.46 26.1121 Q2793.3 26.1121 2798.16 31.2163 Q2803.02 36.3204 2803.02 46.6907 Z" fill="#000000" fill-rule="nonzero" fill-opacity="1" /><path clip-path="url(#clip0000)" d="M2817.61 54.671 L2817.61 27.2059 L2825.06 27.2059 L2825.06 54.3874 Q2825.06 60.8284 2827.57 64.0691 Q2830.08 67.2693 2835.11 67.2693 Q2841.14 67.2693 2844.63 63.421 Q2848.15 59.5726 2848.15 52.9291 L2848.15 27.2059 L2855.6 27.2059 L2855.6 72.576 L2848.15 72.576 L2848.15 65.6084 Q2845.44 69.7404 2841.83 71.7658 Q2838.27 73.7508 2833.53 73.7508 Q2825.71 73.7508 2821.66 68.8897 Q2817.61 64.0286 2817.61 54.671 M2836.36 26.1121 L2836.36 26.1121 Z" fill="#000000" fill-rule="nonzero" fill-opacity="1" /><path clip-path="url(#clip0000)" d="M2899.88 28.5427 L2899.88 35.5912 Q2896.72 33.9709 2893.32 33.1607 Q2889.91 32.3505 2886.27 32.3505 Q2880.72 32.3505 2877.92 34.0519 Q2875.17 35.7533 2875.17 39.156 Q2875.17 41.7486 2877.15 43.2475 Q2879.14 44.7058 2885.13 46.0426 L2887.69 46.6097 Q2895.63 48.3111 2898.95 51.4303 Q2902.31 54.509 2902.31 60.0587 Q2902.31 66.3781 2897.29 70.0644 Q2892.3 73.7508 2883.55 73.7508 Q2879.91 73.7508 2875.94 73.0216 Q2872.01 72.3329 2867.63 70.9151 L2867.63 63.2184 Q2871.77 65.3654 2875.78 66.4591 Q2879.79 67.5124 2883.72 67.5124 Q2888.98 67.5124 2891.82 65.73 Q2894.65 63.9071 2894.65 60.6258 Q2894.65 57.5877 2892.59 55.9673 Q2890.56 54.3469 2883.64 52.8481 L2881.04 52.2405 Q2874.12 50.7821 2871.04 47.7845 Q2867.96 44.7463 2867.96 39.4801 Q2867.96 33.0797 2872.5 29.5959 Q2877.03 26.1121 2885.38 26.1121 Q2889.51 26.1121 2893.16 26.7198 Q2896.8 27.3274 2899.88 28.5427 Z" fill="#000000" fill-rule="nonzero" fill-opacity="1" /><polyline clip-path="url(#clip0002)" style="stroke:#2e8b57; stroke-linecap:round; stroke-linejoin:round; stroke-width:12; stroke-opacity:1; fill:none" points="411.718,151.301 430.898,346.337 450.078,490.383 469.257,567.078 488.437,662.219 507.616,690.48 526.796,763.115 545.975,800.585 565.155,855.535 584.335,896.258 603.514,932.447 622.694,940.58 641.873,940.602 661.053,972.701 680.232,1064.6 699.412,1069.91 718.592,1084.6 737.771,1095.86 756.951,1115.18 776.13,1095.82 795.31,1174.98 814.489,1131.44 833.669,1160.84 852.848,1177.38 872.028,1188.09 891.208,1189.33 910.387,1203.76 929.567,1195.52 948.746,1202.06 967.926,1226.6 987.105,1242.32 1006.29,1231.07 1025.46,1246.51 1044.64,1232.21 1063.82,1247.46 1083,1269.32 1102.18,1272.22 1121.36,1280.35 1140.54,1268.8 1159.72,1261.54 1178.9,1322.09 1198.08,1299.64 1217.26,1311.28 1236.44,1296.47 1255.62,1305.98 1274.8,1269.21 1293.98,1302.64 1313.16,1339.73 1332.34,1339.16 1351.52,1325.17 1370.7,1355.53 1389.88,1319.76 1409.06,1337.55 1428.24,1351.42 1447.42,1333.83 1466.59,1361.84 1485.77,1366.42 1504.95,1375.35 1524.13,1360.57 1543.31,1381.03 1562.49,1366.87 1581.67,1345.36 1600.85,1377.77 1620.03,1391.33 1639.21,1392.93 1658.39,1396.28 1677.57,1415.88 1696.75,1383.75 1715.93,1359.24 1735.11,1384.19 1754.29,1414.98 1773.47,1357.81 1792.65,1394.43 1811.83,1422.15 1831.01,1392.98 1850.19,1368.24 1869.37,1401.46 1888.55,1417.86 1907.72,1409.33 1926.9,1441.44 1946.08,1448.27 1965.26,1468.76 1984.44,1472.14 2003.62,1467.68 2022.8,1448.21 2041.98,1443.74 2061.16,1441.02 2080.34,1464.57 2099.52,1473.54 2118.7,1483.53 2137.88,1481.09 2157.06,1481.11 2176.24,1467.69 2195.42,1477.03 2214.6,1477.27 2233.78,1449.6 2252.96,1480.2 2272.14,1492.45 2291.32,1484.06 2310.5,1467 2329.68,1489.91 2348.85,1495.54 2368.03,1494.44 2387.21,1476.37 2406.39,1461.47 2425.57,1493.87 2444.75,1488.66 2463.93,1502.96 2483.11,1481.91 2502.29,1456.54 2521.47,1490.34 2540.65,1495.99 2559.83,1498.62 2579.01,1491 2598.19,1507.3 2617.37,1505.98 2636.55,1510.19 2655.73,1503.13 2674.91,1510.48 2694.09,1416.88 2713.27,1516 2732.45,1521.92 2751.63,1510.77 2770.81,1525.24 2789.98,1520.7 2809.16,1530.55 2828.34,1522.71 2847.52,1518.43 2866.7,1525.23 2885.88,1524.32 2905.06,1537.55 2924.24,1535.53 2943.42,1514.45 2962.6,1529.58 2981.78,1522.95 3000.96,1539.9 3020.14,1536.53 3039.32,1530.65 3058.5,1535.71 3077.68,1537.09 3096.86,1539.6 3116.04,1535.91 3135.22,1541.21 3154.4,1541.38 3173.58,1530.57 3192.76,1533.13 3211.94,1543.51 3231.11,1543.97 3250.29,1525.75 3269.47,1529.93 3288.65,1534.51 3307.83,1543.78 3327.01,1546.05 3346.19,1540.37 3365.37,1549.32 3384.55,1544.77 3403.73,1532.13 3422.91,1537.66 3442.09,1544.85 3461.27,1532.37 "/>
<polyline clip-path="url(#clip0002)" style="stroke:#808080; stroke-linecap:round; stroke-linejoin:round; stroke-width:4; stroke-opacity:1; fill:none" stroke-dasharray="16, 10" points="3365.37,3073.15 3365.37,-1372.54 "/>
</svg>
